<svg width="12" height="9" viewBox="0 0 12 9" fill="none" xmlns="http://www.w3.org/2000/svg">
<path d="M7.32555 1.2938L7.32556 1.29378L7.32288 1.29273C6.88129 1.11956 6.41438 1.03334 5.92346 1.03334C5.54365 1.03334 5.17587 1.08942 4.82079 1.20187C4.47505 1.30572 4.15264 1.45724 3.85408 1.65627C3.55552 1.85531 3.28577 2.0972 3.04482 2.38118L3.0448 2.38116L3.04287 2.38352C2.82598 2.64861 2.64657 2.93971 2.50468 3.25637C1.93412 3.44575 1.45577 3.78639 1.07207 4.27434C0.670739 4.78473 0.466078 5.34747 0.466078 5.9583C0.466078 6.3441 0.540748 6.7099 0.690756 7.05404C0.839277 7.39476 1.041 7.69336 1.29601 7.94838C1.55103 8.20339 1.84963 8.40512 2.19035 8.55364C2.53449 8.70365 2.9003 8.77832 3.2861 8.77832H9.09325C9.72428 8.77832 10.2671 8.55416 10.7119 8.10934C11.1567 7.66453 11.3808 7.12176 11.3808 6.49072C11.3808 5.95671 11.2128 5.4811 10.8782 5.07064C10.5712 4.69405 10.1913 4.43618 9.74142 4.30082C9.67381 3.86862 9.53666 3.4612 9.32995 3.07943C9.11417 2.67393 8.83544 2.31956 8.49421 2.0172C8.15327 1.71511 7.76333 1.47407 7.32555 1.2938ZM3.14132 4.54126L3.14133 4.54133L3.14614 4.54037L3.45569 4.47846L3.55114 4.45937L3.58312 4.36743L3.68218 4.08264L3.68219 4.08265L3.68289 4.08055C3.85411 3.56691 4.1413 3.16814 4.54365 2.87691C4.94695 2.58501 5.40495 2.43874 5.92346 2.43874C6.26484 2.43874 6.58479 2.50058 6.88483 2.62341C7.18725 2.75547 7.4494 2.93321 7.67274 3.15655C7.89607 3.37989 8.07381 3.64204 8.20588 3.94446C8.32871 4.2445 8.39055 4.56445 8.39055 4.90583V5.43825V5.60853H8.56082H9.09325C9.33649 5.60853 9.54097 5.69341 9.71576 5.8682C9.89056 6.043 9.97544 6.24748 9.97544 6.49072C9.97544 6.73396 9.89056 6.93844 9.71576 7.11324C9.54097 7.28804 9.33649 7.37291 9.09325 7.37291H3.2861C2.89379 7.37291 2.56357 7.2361 2.28593 6.95846C2.00829 6.68082 1.87148 6.3506 1.87148 5.9583C1.87148 5.63368 1.99081 5.3325 2.24298 5.05022C2.49533 4.76774 2.79355 4.60046 3.14132 4.54126Z" fill="white" stroke="white" stroke-width="0.34055"/>
</svg>
