<svg width="8" height="14" viewBox="0 0 8 14" fill="none" xmlns="http://www.w3.org/2000/svg">
<path fill-rule="evenodd" clip-rule="evenodd" d="M6.79164 7.76882C6.91367 7.88068 7.02553 8.01796 7.12722 8.18067C7.40179 8.60778 7.57975 9.05522 7.6611 9.523C7.75262 10.001 7.75008 10.4636 7.65347 10.9111C7.55687 11.3585 7.37637 11.7856 7.11197 12.1924C6.84757 12.589 6.5069 12.9246 6.08996 13.1992C5.79506 13.3924 5.4849 13.5373 5.15949 13.6339C4.83407 13.7305 4.49341 13.7788 4.13748 13.7788C4.00528 13.7788 3.8858 13.7763 3.77902 13.7712C3.67224 13.7661 3.55276 13.7483 3.42056 13.7178C2.96294 13.6568 2.5333 13.489 2.13161 13.2144C1.72993 12.9398 1.39689 12.6093 1.13249 12.2229C0.878262 11.8365 0.705388 11.4246 0.613865 10.9874C0.522342 10.5501 0.507088 10.1204 0.568103 9.69842C0.629119 9.2764 0.771486 8.87217 0.995209 8.48574C1.20876 8.09931 1.4935 7.75865 1.84942 7.46374V2.47556C1.84942 1.85524 2.07568 1.31882 2.52821 0.866292C2.98074 0.413762 3.51716 0.1875 4.13748 0.1875C4.74764 0.1875 5.27897 0.413762 5.7315 0.866292C6.18403 1.31882 6.41029 1.85524 6.41029 2.47556V7.40273C6.54249 7.53493 6.66961 7.65696 6.79164 7.76882ZM3.65699 12.4288C4.2824 12.5661 4.85441 12.4517 5.37304 12.0856C5.89167 11.7297 6.21962 11.2518 6.35691 10.6518C6.49419 10.0518 6.37979 9.49249 6.0137 8.97386C5.92217 8.84166 5.82557 8.72472 5.72387 8.62303C5.62218 8.52134 5.50524 8.41965 5.37304 8.31795C5.30185 8.25694 5.24084 8.17813 5.18999 8.08152C5.13915 7.98491 5.11372 7.89085 5.11372 7.79932V2.47556C5.11372 2.21116 5.01458 1.98236 4.81628 1.78914C4.61798 1.59593 4.39171 1.49932 4.13748 1.49932C3.87308 1.49932 3.64174 1.59593 3.44344 1.78914C3.24514 1.98236 3.12565 2.21116 3.08497 2.47556V7.79932C3.08497 7.89085 3.06718 7.98491 3.03159 8.08152C2.99599 8.17813 2.92735 8.25694 2.82566 8.31795C2.57143 8.48066 2.36296 8.68658 2.20026 8.93573C2.03755 9.18488 1.9206 9.4569 1.84942 9.75181C1.7884 10.0467 1.7884 10.3365 1.84942 10.6213C1.91043 10.906 2.02229 11.1806 2.185 11.445C2.54092 11.9636 3.03158 12.2916 3.65699 12.4288ZM4.12971 11.7401C4.98319 11.7401 5.67507 11.0483 5.67507 10.1948C5.67507 9.3413 4.98319 8.64941 4.12971 8.64941C3.27623 8.64941 2.58435 9.3413 2.58435 10.1948C2.58435 11.0483 3.27623 11.7401 4.12971 11.7401Z" fill="white"/>
</svg>
