<svg width="85" height="94" viewBox="0 0 85 94" fill="none" xmlns="http://www.w3.org/2000/svg">
<path d="M15.092 73.1856C16.632 74.4208 17.71 75.9648 17.864 77.972L18.48 83.8392C18.788 87.3904 21.406 90.4784 24.794 91.4048C36.036 94.3384 47.894 94.3384 59.136 91.4048C62.678 90.4784 65.142 87.5448 65.45 83.8392L66.066 77.972C66.22 76.1192 67.298 74.4208 68.838 73.1856C78.078 66.0832 84.084 54.5032 84.084 38.9088C84.084 11.1168 65.296 0 42.042 0C18.788 0 0 11.1168 0 38.9088C0 54.5032 5.852 66.0832 15.092 73.1856ZM49.126 46.4744C49.742 41.0704 53.592 37.056 60.522 37.9824C67.452 38.9088 70.224 43.6952 69.454 48.9448C68.838 54.3488 65.912 58.2088 58.058 57.4368C50.204 56.6648 48.356 51.8784 49.126 46.4744ZM35.42 71.4872L39.886 60.988C40.656 59.1352 43.428 59.1352 44.198 60.988L48.664 71.4872C49.588 73.6488 48.048 76.1192 45.584 76.1192H38.346C36.036 75.9648 34.496 73.6488 35.42 71.4872ZM23.562 38.1368C30.492 37.2104 34.342 41.2248 34.958 46.6288C35.574 52.0328 33.88 56.8192 26.026 57.5912C18.172 58.3632 15.246 54.5032 14.63 49.0992C14.014 43.6952 16.632 39.0632 23.562 38.1368Z" fill="#ffffff"/>
</svg>
