<svg width="2301" height="2407" viewBox="0 0 2301 2407" fill="none" xmlns="http://www.w3.org/2000/svg">
<path d="M2274.65 1452.11C2224.99 1375.41 2175.38 1298.67 2124.28 1222.93C2112.61 1205.63 2113.48 1194.15 2124.71 1177.36C2174.19 1103.13 2222.26 1028 2270.57 953.008C2327.48 864.67 2297.55 777.101 2199.15 740.811C2115.45 709.932 2032.36 677.515 1948.68 646.583C1931.06 640.057 1924.35 630.189 1923.53 611.195C1919.58 520.071 1913.95 429.027 1909.2 337.956C1904.19 241.554 1828.21 186.004 1734.48 211.073C1646.32 234.63 1558.13 258.054 1470.48 283.388C1450.29 289.225 1439.65 284.635 1427.26 269.037C1371.07 198.287 1313.53 128.624 1256.65 58.4044C1194.49 -18.3411 1101.18 -18.4737 1038.7 58.6962C982.537 128.067 926.002 197.172 871.456 267.79C856.467 287.182 842.963 290.577 820.306 284.131C734.455 259.672 648.021 237.203 585.94 220.517C465.441 191.708 395.216 240.864 388.212 339.071C381.659 431.096 377.653 523.361 374.496 615.572C373.807 635.441 367.201 643.904 349.505 650.562C263.07 682.953 176.874 716.034 91.0233 749.963C1.74984 785.245 -25.9475 872.788 26.2636 953.698C75.7951 1030.47 125.565 1107.11 176.529 1182.95C187.99 1200.01 187.672 1211.87 176.45 1228.82C124.982 1306.57 74.2829 1384.86 24.5922 1463.78C-23.2945 1539.81 6.81709 1628.25 90.6254 1660.62C177.617 1694.2 264.556 1727.97 352.132 1760.02C370.782 1766.83 376.619 1776.17 377.468 1795.09C381.447 1883.16 391.422 1971.23 390.494 2059.2C389.539 2149.21 468.253 2227.63 575.355 2193.93C660.41 2167.19 747.455 2146.9 833.333 2122.71C850.577 2117.85 860.765 2121.06 872.04 2135.23C928.947 2206.72 986.729 2277.47 1044.72 2348.12C1108.29 2425.55 1199.77 2425.44 1262.46 2348.04C1319.89 2277.1 1377.22 2206.08 1433.81 2134.46C1444.72 2120.66 1454.48 2116.26 1472.23 2121.17C1561.18 2145.87 1650.54 2169.18 1739.78 2192.85C1831.58 2217.17 1908.38 2161.46 1913.18 2067.45C1917.88 1975.29 1923.77 1883.16 1927.09 1790.95C1927.85 1769.35 1936.87 1761.58 1954.99 1754.79C2039.52 1723.06 2123.62 1690.22 2207.75 1657.49C2298.61 1621.99 2327.5 1533.68 2274.65 1452.11ZM1294.88 1649.42C1214.83 1707.2 1125.85 1740.09 1026.13 1732.4C958.767 1727.2 923.19 1669.82 940.036 1599.63C962.746 1505.06 986.331 1410.7 1009.44 1316.23C1018.94 1277.37 1008.83 1258.98 971.342 1247.04C962.481 1244.21 953.222 1242.59 944.175 1240.25C920.696 1234.13 915.39 1218.05 930.937 1199.06C935.314 1193.72 940.832 1189.03 946.616 1185.21C1014.82 1140.11 1088.71 1111.51 1171.32 1108.81C1235.71 1106.95 1277.84 1129.18 1290.23 1177.3C1295.8 1198.92 1295.43 1224.1 1290.5 1246.01C1269.62 1338.59 1245.85 1430.51 1223.48 1522.78C1212.71 1567.26 1224.31 1585.91 1268.88 1597.82C1273.39 1599.02 1278.29 1599.44 1282.35 1601.54C1291.98 1606.53 1308.41 1611.67 1308.96 1617.88C1309.92 1628.12 1303.36 1643.32 1294.88 1649.42ZM1228.1 975.796C1143.26 975.504 1076.29 909.396 1075.58 825.196C1074.86 740.705 1143.52 672.74 1229.03 673.297C1313.13 673.854 1378.95 741.049 1378.82 826.204C1378.71 908.706 1310.82 976.088 1228.1 975.796Z" fill="#A2A3A3"/>
</svg>