<svg width="120" height="86" viewBox="0 0 120 86" fill="none" xmlns="http://www.w3.org/2000/svg">
<path fill-rule="evenodd" clip-rule="evenodd" d="M70.6783 27.8277L91.9017 48.1317C91.9017 48.1317 104.958 34.69 114.357 47.3364C123.762 59.9811 116.657 62.8732 113.327 63.2552C109.998 63.6454 103.242 61.4644 100.689 65.7123C101.4 81.7618 84.6046 91.612 81.6216 80.1082C78.6419 68.6011 78.8023 68.5829 78.8023 68.5829L55.8625 46.6386L55.8393 40.3121L64.2196 43.3844L63.4606 33.1902L70.3708 34.8471L70.6783 27.8277V27.8277ZM48.3206 55.8009L29.0947 63.2783L38.682 67.9033L48.3206 55.8009V55.8009ZM50.1726 76.8705L55.0109 58.8021L62.7562 70.8417L50.1726 76.8705V76.8705ZM58.6272 17.3243L45.7196 1.23521L56.3371 2.02395L58.6272 17.3243ZM70.7676 0L65.9277 18.0701L78.6518 11.5154L70.7676 0V0ZM12.6501 30.0286C4.00696 16.4843 13.6273 -0.443153 21.9596 8.02471C30.2985 16.4975 30.1646 16.5967 30.1646 16.5967L51.6079 21.8369L53.9559 26.3412L46.2735 28.6231L51.4376 36.2013L43.2822 37.6267L47.8411 45.453L29.0484 40.8561C29.0484 40.8561 24.4614 59.027 9.99779 52.7766C-4.46586 46.5228 0.240157 40.4691 2.93049 38.47C5.62248 36.4708 12.5575 34.981 12.6501 30.0286V30.0286Z" fill="#ffffff"/>
</svg>
