<svg width="108" height="100" viewBox="0 0 108 100" fill="none" xmlns="http://www.w3.org/2000/svg">
<path d="M79.2483 0.000835576C74.3318 -0.0365062 69.4867 1.17832 65.1694 3.53088C60.8521 5.88344 57.2047 9.29629 54.5709 13.448C54.5108 13.5454 54.4268 13.6258 54.3269 13.6816C54.227 13.7374 54.1145 13.7667 54 13.7667C53.8856 13.7667 53.773 13.7374 53.6731 13.6816C53.5732 13.6258 53.4892 13.5454 53.4292 13.448C50.7953 9.29629 47.1479 5.88344 42.8307 3.53088C38.5134 1.17832 33.6683 -0.0365062 28.7518 0.000835576C11.3501 0.121244 -1.26464 15.1232 0.101172 32.4709C2.69182 65.2854 41.0219 92.4082 51.4156 99.1879C52.1837 99.6907 53.0819 99.9586 54 99.9586C54.9181 99.9586 55.8163 99.6907 56.5844 99.1879C66.9781 92.4082 105.308 65.2854 107.899 32.4709C109.265 15.1232 96.6479 0.121244 79.2483 0.000835576ZM78.2813 58.9792H63V74.2599H45V58.9792H29.7194V40.9792H45V25.6986H63V40.9792H78.2813V58.9792Z" fill="#ffffff"/>
</svg>
