<svg width="507" height="273" viewBox="0 0 507 273" fill="none" xmlns="http://www.w3.org/2000/svg">
<path d="M378.097 0.644409C355.655 0.644409 337.062 49.6755 333.472 113.957H173.563C169.955 49.6755 151.38 0.644409 128.92 0.644409H106.737C128.781 24.0496 140.245 80.5238 140.245 136.599C140.245 192.657 128.781 249.131 106.737 272.554H128.92C151.363 272.554 169.955 223.522 173.545 159.258H333.472C337.079 223.522 355.655 272.554 378.097 272.554C403.107 272.554 423.382 211.672 423.382 136.599C423.382 61.5082 403.107 0.644409 378.097 0.644409ZM468.684 23.3035H448.392C441.229 9.00712 432.626 0.644409 423.382 0.644409H401.199C423.243 24.0496 434.725 80.5238 434.725 136.599C434.725 192.657 423.261 249.131 401.199 272.554H423.382C432.626 272.554 441.229 264.191 448.392 249.895H468.684C489.514 249.895 506.424 199.163 506.424 136.599C506.424 74.0349 489.514 23.3035 468.684 23.3035ZM38.3161 23.3035C17.4862 23.3035 0.576096 74.0349 0.576096 136.599C0.576096 199.163 17.4862 249.895 38.3161 249.895C59.1806 249.895 76.0734 199.163 76.0734 136.599C76.0734 74.0349 59.1633 23.3035 38.3161 23.3035ZM38.3161 159.258C32.055 159.258 26.9906 149.126 26.9906 136.599C26.9906 124.09 32.055 113.94 38.3161 113.94C44.5772 113.94 49.6416 124.09 49.6416 136.599C49.6416 149.126 44.5772 159.258 38.3161 159.258ZM83.618 0.644409C74.6512 0.644409 66.3089 8.60807 59.302 22.1237C78.4495 42.5794 87.3989 90.8644 87.3989 136.599C87.3989 182.351 78.4669 230.619 59.302 251.074C66.3089 264.573 74.6512 272.554 83.618 272.554C108.628 272.554 128.92 211.672 128.92 136.599C128.92 61.5082 108.628 0.644409 83.618 0.644409Z" fill="#ffffff"/>
</svg>
