<svg width="69" height="30" viewBox="0 0 69 30" fill="none" xmlns="http://www.w3.org/2000/svg">
<path d="M9.16611 10.7938C5.26766 10.7938 0.477539 13.8006 0.477539 18.3834C0.477539 21.0791 2.57192 23.8163 5.45429 23.8163C7.52793 23.8163 8.79286 23.6919 10.6591 22.821C10.9702 22.6758 11.0324 22.5307 11.1361 22.1367L11.7582 19.6276C11.9863 18.7152 12.3181 18.4871 12.8987 18.3212C13.106 18.259 13.5 17.9479 13.5 17.865C13.5 17.6161 13.2305 17.4502 12.9816 17.4502C12.7743 17.4502 12.8779 17.4917 11.302 17.4917C11.1153 17.4917 9.20758 17.388 8.81359 17.388C8.31592 17.388 8.15003 17.471 8.15003 17.7198C8.15003 17.9064 8.39886 18.1138 8.6477 18.176C9.1039 18.3004 10.0993 18.6737 9.9541 19.2543L9.35274 21.7219C9.22832 22.2404 7.85971 22.9247 6.55332 22.9247C4.35525 22.9247 2.82076 20.9132 2.82076 18.8188C2.82076 15.19 5.64091 11.7062 8.75138 11.7062C10.2029 11.7062 11.6338 12.4942 11.5301 13.7384C11.4471 14.6093 11.6752 15.0655 11.9241 15.0655C12.1314 15.0655 12.4632 14.6923 12.5669 14.1324C12.712 13.3652 13.0231 12.432 13.106 12.0588C13.189 11.727 13.106 11.4367 12.8779 11.4367C12.5669 11.4367 12.2766 11.4989 12.0485 11.4989C11.8618 11.4989 10.3066 10.7938 9.16611 10.7938Z" fill="black"/>
<path d="M15.3038 21.4731C15.3038 18.9225 16.5272 15.6876 17.958 15.6876C18.5801 15.6876 18.6838 16.3512 18.6838 17.0148C18.6838 19.5446 17.4811 22.9869 16.1747 22.9869C15.4904 22.9869 15.3038 22.1782 15.3038 21.4731ZM17.9166 14.7338C15.6978 14.7338 13.6449 18.0309 13.6449 20.934C13.6449 22.427 14.6402 23.9407 16.1332 23.9407C18.4557 23.9407 20.3427 20.4985 20.3427 17.5332C20.3427 16.0816 19.3474 14.7338 17.9166 14.7338Z" fill="black"/>
<path d="M24.1775 14.7338C22.6015 14.7338 21.1915 16.0609 21.1915 17.4295C21.1915 17.7406 21.2952 18.1553 21.4196 18.3212C22.4149 20.0008 23.0577 21.2865 23.0577 21.7634C23.0577 22.2611 22.7674 22.738 22.2698 22.738C21.3159 22.738 20.6108 21.9086 20.4035 21.9086C20.0302 21.9086 19.7192 22.1989 19.7192 22.5307C19.7192 23.3394 20.362 23.9407 21.1915 23.9407C22.6223 23.9407 24.5508 22.821 24.5508 21.0999C24.5508 20.5814 24.4056 20.2289 24.0531 19.5861C23.3688 18.3626 22.6015 17.0148 22.6015 16.5378C22.6015 16.2475 22.8089 15.8535 23.0992 15.8535C23.9494 15.8535 24.7167 16.683 24.9655 16.683C25.2765 16.683 25.6083 16.1853 25.6083 15.9365C25.6083 15.3144 24.8826 14.7338 24.1775 14.7338Z" fill="black"/>
<path d="M29.6301 15.0448C29.402 15.1278 29.2775 15.2522 29.3812 14.713C29.4434 14.2568 29.5264 13.0956 29.1946 13.0956C28.5932 13.0956 27.9297 14.4642 27.7638 15.0863C27.6394 15.5217 27.5979 15.584 27.2454 15.7291C26.9965 15.8328 25.7938 16.4756 25.7938 16.8904C25.7938 17.0977 25.8353 17.1392 26.0427 17.1392C26.1049 17.1392 26.6648 16.9318 27.0587 16.7659C27.3283 16.6623 27.3698 16.7245 27.2869 17.077L24.6948 27.4037C24.5496 27.9429 24.4667 28.1295 23.7824 28.2747C23.5336 28.3161 23.2225 28.4406 23.2225 28.7309C23.2225 28.9797 23.4506 29.0834 23.7824 29.0834C25.0058 29.0834 26.7892 29.2285 27.0587 29.2285C27.3698 29.2285 27.7016 29.1456 27.7016 28.8553C27.7016 28.6479 27.4527 28.5028 27.1624 28.4406C26.644 28.3161 26.1049 27.9636 26.2293 27.5074L27.1002 24.003C27.1832 23.6712 27.3076 23.6504 27.4113 23.6504C27.515 23.6504 28.0956 23.8785 28.22 23.8785C30.4595 23.8785 33.6944 19.8764 33.6944 16.9733C33.6944 15.7706 33.3004 14.7338 31.4341 14.7338C30.8535 14.7338 30.19 14.8582 29.6301 15.0448ZM28.9665 16.5793C29.0909 16.0816 29.8789 15.7706 31.0816 15.7706C31.6208 15.7706 31.994 16.3097 31.994 16.8696C31.994 19.1714 30.0863 22.8625 28.7384 22.8625C28.0334 22.8625 27.5357 22.3233 27.7016 21.6597L28.9665 16.5793Z" fill="black"/>
<path d="M35.6062 22.0123L38.1568 11.7892C38.3434 11.0427 38.4678 10.4828 38.4678 10.0266C38.4678 9.75702 38.4264 9.50818 37.9702 9.50818C37.3066 9.50818 35.2537 10.0473 35.2537 10.3584C35.2537 10.6694 36.7052 10.9597 36.7052 11.1256C36.7052 11.3537 36.643 11.5611 36.5186 12.0795L33.9266 22.4477C33.8851 22.6136 33.8021 22.8417 33.8021 23.0906C33.8021 23.5468 34.0303 23.9407 34.7146 23.9407C35.9587 23.9407 37.6177 22.3648 37.6177 21.639C37.6177 21.5146 37.5969 21.3694 37.4725 21.3694C37.1615 21.3694 36.5186 22.3648 35.7721 22.3648C35.5855 22.3648 35.544 22.2611 35.6062 22.0123Z" fill="black"/>
<path d="M39.5022 21.8671C39.5022 20.3119 42.903 16.4549 43.8984 16.4549C44.3753 16.4549 44.7071 16.8904 44.7071 17.1599C44.7071 18.4871 41.5966 22.4477 39.8755 22.4477C39.6059 22.4477 39.5022 22.1574 39.5022 21.8671ZM46.8222 15.2107C46.9052 14.8789 46.6978 14.4849 45.8476 14.4849C45.7024 14.4849 45.5365 14.5886 45.4743 14.7338C45.2255 15.2936 45.1011 15.4388 44.9559 15.4388C44.8315 15.4388 44.6864 15.3144 44.396 15.3144C42.5298 15.3144 37.5323 19.752 37.5323 22.7588C37.5323 23.5468 38.1751 23.9407 39.0253 23.9407C41.0575 23.9407 42.4676 22.5929 43.6081 21.0584C43.691 20.934 43.8154 20.934 43.7739 21.1413C43.5458 22.1367 43.0274 23.9407 44.2302 23.9407C45.4743 23.9407 47.1333 22.3648 47.1333 21.639C47.1333 21.5146 47.1125 21.3694 46.9881 21.3694C46.6771 21.3694 46.0342 22.3648 45.2877 22.3648C45.1011 22.3648 45.0596 22.2611 45.1218 22.0123L46.8222 15.2107Z" fill="black"/>
<path d="M47.6556 22.2818C47.4689 22.7795 47.3445 23.0491 47.3445 23.4223C47.3445 23.5468 47.9666 23.9822 48.3191 23.9407C48.5472 23.92 48.7546 23.4845 48.8168 23.2979C49.8744 20.3948 52.259 15.895 54.2497 15.895C54.7889 15.895 54.6437 16.6415 54.2705 17.7198L52.6116 22.4477C52.5494 22.6344 52.4871 22.8417 52.4871 23.0906C52.4871 23.5468 52.7152 23.9407 53.3996 23.9407C54.6437 23.9407 56.4063 22.3648 56.4063 21.639C56.4063 21.5146 56.3856 21.3694 56.2612 21.3694C55.9501 21.3694 55.3073 22.3648 54.5608 22.3648C54.3742 22.3648 54.312 22.2611 54.3949 22.0123L55.9916 17.4295C56.4063 16.1438 56.3234 14.7338 55.328 14.7338C54.1253 14.7338 52.7982 15.3559 51.2015 16.9318C51.0978 17.0355 50.9319 16.9526 50.9734 16.8074C51.2637 15.5632 51.1185 14.7338 50.2683 14.7338C48.9205 14.7338 47.4482 16.2683 47.4482 16.7452C47.4482 16.9111 47.5311 17.1807 47.6763 17.1807C47.9666 17.1807 48.568 16.2475 49.3559 16.2475C49.6877 16.2475 49.6048 16.8074 49.5011 17.1185L47.6556 22.2818Z" fill="black"/>
<path d="M63.4488 13.3859C63.5732 12.826 64.1124 12.349 64.7137 12.349H66.4349C67.4717 12.349 67.4302 13.6347 67.8657 13.6347C68.073 13.6347 68.2597 13.4895 68.3219 13.1992C68.467 12.3905 68.6951 11.4574 68.7988 11.1049C68.8818 10.7938 68.8196 10.6901 68.5915 10.6901C68.2804 10.6901 67.5339 11.4366 66.3312 11.4366H58.7831C57.8914 11.4366 57.7463 10.7109 57.373 10.7109C57.1864 10.7109 56.9583 11.0219 56.8754 11.25C56.5021 12.1624 56.0459 12.8052 56.0459 13.0541C56.0459 13.2822 56.0874 13.4895 56.2947 13.4895C56.6265 13.4895 57.8914 12.349 58.7416 12.349H60.5664C61.6447 12.349 61.5825 12.9089 61.4788 13.3859L59.5918 20.9754C59.3637 21.8256 59.1149 22.4477 58.4513 22.738C57.9744 22.9661 57.3108 23.0283 57.3108 23.3394C57.3108 23.5467 57.6633 23.6919 57.9951 23.6919C58.3062 23.6919 58.8661 23.5675 59.8407 23.5675C60.836 23.5675 62.1424 23.6919 62.3913 23.6919C62.723 23.6919 63.0341 23.5467 63.0341 23.3394C63.0341 23.0283 62.5986 22.9246 62.0387 22.7173C61.5618 22.5514 61.3337 21.8878 61.5618 20.9754L63.4488 13.3859Z" fill="black"/>
<path d="M25.7313 2.03357C24.8849 2.52731 24.2349 3.12936 23.7815 3.83974C23.3281 4.55012 22.9376 5.27812 22.6101 6.02377C22.2827 6.76942 21.9527 7.48735 21.6201 8.17758C21.2876 8.8678 20.8292 9.44467 20.2447 9.90818C19.8014 10.2508 19.3202 10.475 18.8013 10.5808C18.2824 10.6866 17.766 10.7218 17.2521 10.6866C16.7382 10.6513 16.2419 10.5631 15.7633 10.4221C15.2847 10.281 14.864 10.1399 14.5013 9.99886C14.5013 9.99886 14.3098 10.2734 13.9269 10.8226C13.544 11.3718 13.1762 12.0595 12.8236 12.8857C12.7026 13.1679 12.4659 13.2107 12.1132 13.0142C11.7605 12.8177 11.6295 12.5985 11.7202 12.3567C12.3046 10.8755 13.1611 9.57818 14.2897 8.46475C15.4182 7.35132 16.5442 6.42179 17.6677 5.67614C18.7912 4.93049 19.7737 4.37126 20.615 3.99844C21.4564 3.62562 21.8771 3.43921 21.8771 3.43921C21.8771 3.43921 21.5698 3.45432 20.9551 3.48455C20.3405 3.51478 19.5721 3.66592 18.6502 3.93798C17.7282 4.21004 16.7281 4.66095 15.65 5.29072C14.5718 5.92049 13.5692 6.83994 12.6422 8.0491C12.622 7.76697 12.6094 7.38659 12.6044 6.90797C12.5994 6.42934 12.6749 5.91294 12.8311 5.35874C12.9873 4.80454 13.2493 4.24027 13.6171 3.66592C13.9849 3.09157 14.5264 2.57769 15.2419 2.12425C16.2092 1.49952 17.3377 1.12166 18.6275 0.990673C19.9173 0.85968 21.1214 0.852123 22.2398 0.968001C23.3583 1.08388 24.2702 1.26021 24.9755 1.49701C25.6809 1.7338 25.9328 1.91265 25.7313 2.03357Z" fill="black"/>
</svg>