<svg xmlns="http://www.w3.org/2000/svg" xmlns:xlink="http://www.w3.org/1999/xlink" version="1.1" x="0px" y="0px" viewBox="0 0 100 125" enable-background="new 0 0 100 100" xml:space="preserve"><path d="M95,83c0,1.657-1.343,3-3,3c-3.835,0-6.33,1.248-9.217,2.695C79.688,90.244,76.18,92,71,92  c-5.208,0-8.73-1.762-11.839-3.316C56.281,87.244,53.794,86,50,86s-6.281,1.244-9.161,2.684C37.73,90.238,34.208,92,29,92  c-5.18,0-8.688-1.756-11.783-3.305C14.33,87.248,11.835,86,8,86c-1.657,0-3-1.343-3-3s1.343-3,3-3c5.253,0,8.786,1.77,11.903,3.33  C22.766,84.762,25.238,86,29,86c3.791,0,6.277-1.244,9.155-2.682C41.265,81.762,44.79,80,50,80s8.735,1.762,11.845,3.318  C64.723,84.756,67.209,86,71,86c3.762,0,6.234-1.238,9.097-2.67C83.214,81.77,86.747,80,92,80C93.657,80,95,81.343,95,83z"/><path d="M11.426,45.863c-0.962-2.591-0.294-5.379,1.702-7.1l30.018-28.065c3.844-3.592,9.864-3.592,13.708,0l30.104,28.144  c1.907,1.641,2.575,4.427,1.613,7.02C87.636,48.375,85.379,50,82.82,50H80v11.715C75.915,63.568,74.152,65,71,65  c-3.167,0-4.928-1.413-9-3.268V53c0-4.971-4.029-9-9-9h-6c-4.971,0-9,4.029-9,9v8.732C33.925,63.587,32.165,65,29,65  c-3.151,0-4.916-1.43-9-3.284V50h-2.824C14.617,50,12.361,48.375,11.426,45.863z"/><path d="M5,68c0-1.657,1.343-3,3-3c5.253,0,8.786,1.77,11.903,3.33C22.766,69.762,25.238,71,29,71c3.791,0,6.277-1.244,9.155-2.682  C41.265,66.762,44.79,65,50,65s8.735,1.762,11.845,3.318C64.723,69.756,67.209,71,71,71c3.762,0,6.234-1.238,9.097-2.67  C83.214,66.77,86.747,65,92,65c1.657,0,3,1.343,3,3s-1.343,3-3,3c-3.835,0-6.33,1.248-9.217,2.695C79.688,75.244,76.18,77,71,77  c-5.208,0-8.73-1.762-11.839-3.316C56.281,72.244,53.794,71,50,71s-6.281,1.244-9.161,2.684C37.73,75.238,34.208,77,29,77  c-5.18,0-8.688-1.756-11.783-3.305C14.33,72.248,11.835,71,8,71C6.343,71,5,69.657,5,68z"/><text x="0" y="115" fill="#000000" font-size="5px" font-weight="bold" font-family="'Helvetica Neue', Helvetica, Arial-Unicode, Arial, Sans-serif">Created by Ayub Irawan</text><text x="0" y="120" fill="#000000" font-size="5px" font-weight="bold" font-family="'Helvetica Neue', Helvetica, Arial-Unicode, Arial, Sans-serif">from the Noun Project</text></svg>