<svg xmlns="http://www.w3.org/2000/svg" xmlns:xlink="http://www.w3.org/1999/xlink" version="1.1" x="0px" y="0px" viewBox="-107 56 279.999 562.5" enable-background="new -107 56 279.999 450" xml:space="preserve"><g><path d="M50.181,245.111c-0.159,0.014-0.313,0.027-0.472,0.041c-0.715,0.063-1.417,0.121-2.107,0.177   c-0.214,0.017-0.43,0.034-0.642,0.051c-0.808,0.063-1.604,0.123-2.377,0.176c-0.009,0.001-0.019,0.001-0.027,0.002   c-0.782,0.054-1.541,0.101-2.289,0.145c-0.197,0.012-0.392,0.022-0.586,0.033c-0.601,0.033-1.19,0.064-1.77,0.091   c-0.149,0.007-0.302,0.015-0.449,0.021c-0.699,0.031-1.384,0.057-2.053,0.079c-0.147,0.004-0.29,0.008-0.435,0.012   c-0.535,0.016-1.06,0.028-1.576,0.038c-0.178,0.003-0.357,0.007-0.533,0.009C34.231,245.994,33.606,246,33,246   c-0.607,0-1.232-0.006-1.865-0.016c-0.176-0.003-0.355-0.006-0.534-0.009c-0.516-0.009-1.04-0.022-1.574-0.038   c-0.146-0.004-0.29-0.008-0.438-0.013c-0.668-0.021-1.352-0.047-2.051-0.078c-0.149-0.007-0.302-0.015-0.453-0.021   c-0.578-0.027-1.165-0.058-1.765-0.091c-0.196-0.011-0.392-0.021-0.59-0.033c-0.746-0.044-1.505-0.091-2.286-0.145   c-0.012,0-0.025-0.002-0.037-0.002c-0.77-0.053-1.563-0.112-2.367-0.175c-0.214-0.017-0.43-0.034-0.646-0.051   c-0.687-0.055-1.387-0.114-2.1-0.176c-0.16-0.014-0.316-0.027-0.477-0.041c-0.866-0.077-1.751-0.159-2.656-0.246   c-0.055-0.005-0.107-0.01-0.162-0.015V486c0,11.028,8.972,20,20,20c11.028,0,20-8.972,20-20V244.85   c-0.055,0.005-0.107,0.01-0.161,0.015C51.934,244.952,51.047,245.034,50.181,245.111z"/><path d="M15.818,86.889c0.161-0.014,0.317-0.027,0.477-0.041c0.713-0.062,1.413-0.121,2.1-0.176   c0.216-0.018,0.433-0.035,0.646-0.051c0.804-0.063,1.597-0.122,2.367-0.175c0.012,0,0.025-0.002,0.037-0.002   c0.781-0.054,1.539-0.101,2.286-0.145c0.199-0.012,0.395-0.022,0.59-0.033c0.599-0.033,1.187-0.063,1.765-0.091   c0.15-0.007,0.304-0.015,0.453-0.021c0.699-0.031,1.382-0.057,2.051-0.078c0.148-0.005,0.291-0.008,0.438-0.013   c0.534-0.016,1.059-0.028,1.574-0.038c0.178-0.003,0.357-0.007,0.534-0.009C31.768,86.006,32.393,86,33,86   c0.606,0,1.231,0.006,1.865,0.016c0.176,0.003,0.355,0.006,0.533,0.009c0.517,0.009,1.041,0.022,1.576,0.038   c0.145,0.004,0.288,0.008,0.435,0.012c0.669,0.021,1.354,0.048,2.053,0.079c0.147,0.007,0.3,0.015,0.449,0.021   c0.579,0.027,1.169,0.058,1.77,0.091c0.194,0.011,0.389,0.022,0.586,0.033c0.748,0.044,1.507,0.091,2.289,0.145   c0.009,0,0.019,0.001,0.027,0.002c0.773,0.053,1.569,0.113,2.377,0.176c0.212,0.017,0.428,0.034,0.642,0.051   c0.689,0.056,1.392,0.114,2.107,0.177c0.158,0.014,0.313,0.026,0.472,0.041c0.866,0.077,1.753,0.159,2.658,0.246   c0.055,0.005,0.107,0.01,0.161,0.015V76c0-11.028-8.972-20-20-20c-11.028,0-20,8.972-20,20v11.15   c0.055-0.005,0.107-0.01,0.162-0.015C14.066,87.048,14.952,86.966,15.818,86.889z"/><path d="M141.12,118.697c-11.409-0.886-27.035-3.159-43.577-5.566c-11.975-1.742-24.357-3.543-35.73-4.903   C49.267,106.729,39.841,106,33,106s-16.266,0.729-28.814,2.228c-11.373,1.359-23.756,3.161-35.732,4.903   c-16.542,2.406-32.166,4.68-43.575,5.565C-93.592,120.132-107,135.008-107,154.068v23.863c0,19.061,13.407,33.936,31.88,35.371   c11.408,0.886,27.03,3.159,43.57,5.565c11.977,1.742,24.361,3.544,35.736,4.904C16.734,225.271,26.159,226,33,226   s16.267-0.729,28.813-2.228c11.374-1.359,23.758-3.161,35.733-4.904c16.541-2.406,32.165-4.679,43.573-5.565   c18.473-1.435,31.88-16.311,31.88-35.371v-23.863C173,135.008,159.593,120.132,141.12,118.697z"/></g><text x="-107" y="521" fill="#000000" font-size="5px" font-weight="bold" font-family="'Helvetica Neue', Helvetica, Arial-Unicode, Arial, Sans-serif">Created by ibrandify</text><text x="-107" y="526" fill="#000000" font-size="5px" font-weight="bold" font-family="'Helvetica Neue', Helvetica, Arial-Unicode, Arial, Sans-serif">from the Noun Project</text></svg>