<svg height='100px' width='100px'  fill="#000000" xmlns="http://www.w3.org/2000/svg" viewBox="0 0 43.81702 48" x="0px" y="0px"><title>Asset 96221</title><g data-name="Layer 2"><g><path d="M10,0A10,10,0,1,0,20,10,9.99995,9.99995,0,0,0,10,0Zm0,17a1,1,0,1,1,1-1A1,1,0,0,1,10,17Zm1-5a1,1,0,0,1-2,0V4a1,1,0,0,1,2,0Z"></path><path d="M29.64209,20.33826l.99768.26733.80219-2.99328a5.16511,5.16511,0,0,0-3.65223-6.32575l-.99768-.26733-.80224,2.99329A5.16494,5.16494,0,0,0,29.64209,20.33826Z"></path><path d="M27.2359,29.31836l.99768.26734.80206-2.99329a5.16487,5.16487,0,0,0-3.6521-6.32574l-.9978-.26734-.80212,2.99329A5.16513,5.16513,0,0,0,27.2359,29.31836Z"></path><path d="M25.82739,38.56574l.80213-2.99323a5.165,5.165,0,0,0-3.65216-6.3258l-.99781-.26728-.80206,2.99323a5.16507,5.16507,0,0,0,3.65222,6.32581Z"></path><path d="M34.43524,18.41431l-.80194,2.99341.99762.26745a5.1652,5.1652,0,0,0,6.32581-3.65228l.80194-2.99328-.99768-.26734A5.16479,5.16479,0,0,0,34.43524,18.41431Z"></path><path d="M32.02905,27.39435,31.227,30.38776l.9978.26733a5.165,5.165,0,0,0,6.32575-3.6521l.80194-2.99328-.99762-.26746A5.165,5.165,0,0,0,32.02905,27.39435Z"></path><path d="M29.62292,36.37445l-.80212,2.99329.9978.26746A5.165,5.165,0,0,0,36.14423,35.983l.80212-2.99329-.9978-.2674A5.16478,5.16478,0,0,0,29.62292,36.37445Z"></path><path d="M23.8222,46.04908a1.54951,1.54951,0,0,0,2.99341.80212l1.4704-5.48785-2.99322-.802Z"></path><path d="M28.8233,9.42462A1.54947,1.54947,0,0,0,30.72107,8.3291l1.06946-3.99121A1.54943,1.54943,0,1,0,28.79724,3.536L27.72766,7.527A1.54946,1.54946,0,0,0,28.8233,9.42462Z"></path><path d="M42.66833,5.64856a1.54949,1.54949,0,0,0-1.89776,1.09552l-1.06952,3.99121a1.54954,1.54954,0,0,0,2.99353.80194l1.06927-3.99108A1.54945,1.54945,0,0,0,42.66833,5.64856Z"></path><path d="M34.00806,14.0221a1.54943,1.54943,0,0,0,1.8977-1.09552L38.84662,1.95087a1.54943,1.54943,0,1,0-2.99329-.80194l-2.9411,10.97552A1.54949,1.54949,0,0,0,34.00806,14.0221Z"></path></g></g></svg>