<svg xmlns="http://www.w3.org/2000/svg" data-name="Layer 1" viewBox="0 0 24 30" x="0px" y="0px"><title>Artboard 40</title><path d="M18.9,7.56A1,1,0,0,0,18,7H14.87l3-4.45A1,1,0,0,0,17,1H11a1,1,0,0,0-.89.55l-5,10A1,1,0,0,0,6,13H9.52L6.07,21.63a1,1,0,0,0,1.71,1l11-14A1,1,0,0,0,18.9,7.56Z"/><text x="0" y="39" fill="#000000" font-size="5px" font-weight="bold" font-family="'Helvetica Neue', Helvetica, Arial-Unicode, Arial, Sans-serif">Created by Yoyon Pujiyono</text><text x="0" y="44" fill="#000000" font-size="5px" font-weight="bold" font-family="'Helvetica Neue', Helvetica, Arial-Unicode, Arial, Sans-serif">from the Noun Project</text></svg>