<svg xmlns="http://www.w3.org/2000/svg" xmlns:xlink="http://www.w3.org/1999/xlink" version="1.2" baseProfile="tiny" x="0px" y="0px" viewBox="0 0 64 80" xml:space="preserve"><metadata><?xpacket begin="&#65279;" id="W5M0MpCehiHzreSzNTczkc9d"?><x:xmpmeta xmlns:x="adobe:ns:meta/" x:xmptk="Adobe XMP Core 5.3-c011 66.145661, 2012/02/06-14:56:27        "/><?xpacket end="w"?></metadata><g><g><circle cx="32" cy="32" r="2"/><path d="M62,30c-1.104,0-2,0.896-2,2c0,4.411-3.589,8-8,8c-1.896,0-3.679-0.656-5.098-1.842C51.438,33.997,54,28.221,54,22    C54,9.869,44.131,0,32,0c-1.104,0-2,0.896-2,2s0.896,2,2,2c4.411,0,8,3.589,8,8c0,1.896-0.656,3.679-1.842,5.098    C33.997,12.562,28.221,10,22,10C9.869,10,0,19.869,0,32c0,1.104,0.896,2,2,2s2-0.896,2-2c0-4.411,3.589-8,8-8    c1.896,0,3.679,0.656,5.098,1.842C12.562,30.003,10,35.779,10,42c0,12.131,9.869,22,22,22c0.008,0.001,0.015,0.001,0.02,0    c1.105,0,2-0.896,2-2s-0.895-2-2-2h-0.01c-0.002,0-0.006,0-0.01,0c-4.411,0-8-3.589-8-8c0-1.896,0.656-3.679,1.842-5.098    C30.003,51.438,35.779,54,42,54c12.131,0,22-9.869,22-22C64,30.896,63.104,30,62,30z M32,38c-3.309,0-6-2.691-6-6s2.691-6,6-6    s6,2.691,6,6S35.309,38,32,38z"/></g></g><text x="0" y="79" fill="#000000" font-size="5px" font-weight="bold" font-family="'Helvetica Neue', Helvetica, Arial-Unicode, Arial, Sans-serif">Created by Izwar Muis</text><text x="0" y="84" fill="#000000" font-size="5px" font-weight="bold" font-family="'Helvetica Neue', Helvetica, Arial-Unicode, Arial, Sans-serif">from the Noun Project</text></svg>