<svg xmlns="http://www.w3.org/2000/svg" xmlns:xlink="http://www.w3.org/1999/xlink" version="1.1" x="0px" y="0px" viewBox="0 0 96 120" style="enable-background:new 0 0 96 96;" xml:space="preserve"><path d="M48,27c-15.5,0-27,9-36,21c9,12,20.5,21,36,21s27-9,36-21C75,36,63.5,27,48,27z M48,63c-8.3,0-15-6.7-15-15s6.7-15,15-15  s15,6.7,15,15S56.3,63,48,63z"/><path d="M57,48c0,5-4,9-9,9s-9-4-9-9s4-9,9-9c1,0,2.1,0.2,3,0.5V45h5.5C56.8,45.9,57,47,57,48z"/><text x="0" y="111" fill="#000000" font-size="5px" font-weight="bold" font-family="'Helvetica Neue', Helvetica, Arial-Unicode, Arial, Sans-serif">Created by Simon Sim</text><text x="0" y="116" fill="#000000" font-size="5px" font-weight="bold" font-family="'Helvetica Neue', Helvetica, Arial-Unicode, Arial, Sans-serif">from the Noun Project</text></svg>