<svg xmlns="http://www.w3.org/2000/svg" xmlns:xlink="http://www.w3.org/1999/xlink" version="1.1" x="0px" y="0px" viewBox="0 0 100 125" enable-background="new 0 0 100 100" xml:space="preserve"><path d="M84.03,67.906c0,8.518-6.778,21.291-18.971,26.989c-1.009,0.471-2.013-0.737-1.36-1.64c2.683-3.717,3.98-8.505,3.98-12.74  c0-8.041-4.174-11.478-4.174-11.478c-1.094,3.462-2.748,6.351-4.911,8.704c-2.086,2.266-5.764-0.165-4.669-3.003  c4.822-12.482,5.038-16.91-3.894-22.306c3.728,14.227-13.78,15.931-13.78,32.001c0,2.448,0.889,5.778,2.713,8.688  c0.603,0.96-0.473,2.085-1.475,1.553c-12.721-6.743-21.52-22.026-21.52-34.493c0-15.548,15.142-28.563,15.663-28.997  c0.013-0.013,0.013-0.013,0.013-0.013c0.558,6.062,3.154,10.605,7.021,14.211c0.822,0.766,2.101-0.145,1.605-1.153  c-1.901-3.867-3.894-9.962-2.901-17.422c0.013-0.052,0.013-0.115,0.026-0.166C38.402,17.724,44.522,10.866,54.231,5  C46.902,32.967,84.03,36.327,84.03,67.906z"/><text x="0" y="115" fill="#000000" font-size="5px" font-weight="bold" font-family="'Helvetica Neue', Helvetica, Arial-Unicode, Arial, Sans-serif">Created by Kevin</text><text x="0" y="120" fill="#000000" font-size="5px" font-weight="bold" font-family="'Helvetica Neue', Helvetica, Arial-Unicode, Arial, Sans-serif">from the Noun Project</text></svg>