<svg xmlns="http://www.w3.org/2000/svg" xmlns:xlink="http://www.w3.org/1999/xlink" version="1.1" x="0px" y="0px" viewBox="0 0 100 125" enable-background="new 0 0 100 100" xml:space="preserve"><path d="M50,92C29.129,92,8,86.331,8,75.5c0-2.593,1.31-6.404,7.553-9.829c1.462-0.794,3.275-0.261,4.075,1.187  c0.797,1.453,0.264,3.278-1.187,4.075C15.661,72.456,14,74.164,14,75.5C14,79.78,28.024,86,50,86s36-6.22,36-10.5  c0-1.336-1.661-3.044-4.444-4.567c-1.453-0.797-1.986-2.619-1.189-4.072c0.794-1.45,2.619-1.992,4.072-1.189  C90.687,69.093,92,72.904,92,75.5C92,86.331,70.871,92,50,92z"/><path d="M50,8c0,0-24,20.875-24,42c0,13.255,10.745,24,24,24s24-10.745,24-24C74,28.875,50,8,50,8z M61.25,59.911  c-1.106,1.253-3.005,1.356-4.233,0.267c-1.245-1.096-1.362-2.991-0.267-4.233C58.2,54.298,59,52.188,59,50  c0-1.567-0.281-3.302-0.832-5.153c-0.475-1.588,0.428-3.261,2.016-3.732c1.588-0.469,3.261,0.428,3.732,2.016  C64.637,45.538,65,47.85,65,50C65,53.65,63.667,57.172,61.25,59.911z"/><text x="0" y="115" fill="#000000" font-size="5px" font-weight="bold" font-family="'Helvetica Neue', Helvetica, Arial-Unicode, Arial, Sans-serif">Created by Ayub Irawan</text><text x="0" y="120" fill="#000000" font-size="5px" font-weight="bold" font-family="'Helvetica Neue', Helvetica, Arial-Unicode, Arial, Sans-serif">from the Noun Project</text></svg>