<svg xmlns:dc="http://purl.org/dc/elements/1.1/" xmlns:cc="http://creativecommons.org/ns#" xmlns:rdf="http://www.w3.org/1999/02/22-rdf-syntax-ns#" xmlns:svg="http://www.w3.org/2000/svg" xmlns="http://www.w3.org/2000/svg" xmlns:sodipodi="http://sodipodi.sourceforge.net/DTD/sodipodi-0.dtd" xmlns:inkscape="http://www.inkscape.org/namespaces/inkscape" viewBox="0 0 16.933333 21.166666250000002" version="1.1" x="0px" y="0px"><g transform="translate(0,-280.06667)"><path style="color:#000000;font-style:normal;font-variant:normal;font-weight:normal;font-stretch:normal;font-size:medium;line-height:normal;font-family:sans-serif;font-variant-ligatures:normal;font-variant-position:normal;font-variant-caps:normal;font-variant-numeric:normal;font-variant-alternates:normal;font-feature-settings:normal;text-indent:0;text-align:start;text-decoration:none;text-decoration-line:none;text-decoration-style:solid;text-decoration-color:#000000;letter-spacing:normal;word-spacing:normal;text-transform:none;writing-mode:lr-tb;direction:ltr;text-orientation:mixed;dominant-baseline:auto;baseline-shift:baseline;text-anchor:start;white-space:normal;shape-padding:0;clip-rule:nonzero;display:inline;overflow:visible;visibility:visible;opacity:1;isolation:auto;mix-blend-mode:normal;color-interpolation:sRGB;color-interpolation-filters:linearRGB;solid-color:#000000;solid-opacity:1;vector-effect:none;fill:#000000;fill-opacity:1;fill-rule:evenodd;stroke:none;stroke-width:2;stroke-linecap:butt;stroke-linejoin:miter;stroke-miterlimit:4;stroke-dasharray:none;stroke-dashoffset:0;stroke-opacity:1;color-rendering:auto;image-rendering:auto;shape-rendering:auto;text-rendering:auto;enable-background:accumulate" d="m 285,403 c -1.64501,0 -3,1.35499 -3,3 v 12.70703 c 0,0.33271 -0.16407,0.64141 -0.43945,0.82813 -0.27538,0.18666 -0.62256,0.2247 -0.93164,0.10156 l -10.125,-4.19531 c -0.37995,-0.15741 -0.77649,-0.22861 -1.16602,-0.22461 -1.16859,0.0119 -2.28177,0.70976 -2.75391,1.84961 L 261.22656,430 c -0.62952,1.51979 0.10211,3.29318 1.62305,3.91992 l 12.2793,5.0625 c 0.28152,0.11661 0.49352,0.35376 0.57812,0.64649 0.0847,0.29272 0.0313,0.60464 -0.14453,0.85351 l -8.03906,10.17383 c -1.00142,1.30507 -0.75234,3.20561 0.55273,4.20703 l 11.10742,8.52344 c 1.30508,1.00142 3.20562,0.75039 4.20703,-0.55469 l 7.81641,-9.89453 c 0.18976,-0.2473 0.48125,-0.39063 0.79297,-0.39062 0.31172,0 0.60321,0.14332 0.79297,0.39062 l 7.81641,9.89453 c 1.00141,1.30508 2.90195,1.55611 4.20703,0.55469 l 11.10742,-8.52344 c 1.30507,-1.00142 1.55415,-2.90196 0.55273,-4.20703 l -8.03906,-10.17383 c -0.17583,-0.24887 -0.22918,-0.56079 -0.14453,-0.85351 0.0846,-0.29273 0.2966,-0.52988 0.57812,-0.64649 l 12.2793,-5.0625 c 1.52094,-0.62674 2.25257,-2.40013 1.62305,-3.91992 l -5.35742,-12.93359 c -0.47214,-1.13985 -1.58532,-1.83771 -2.75391,-1.84961 -0.38953,-0.004 -0.78607,0.0672 -1.16602,0.22461 l -10.125,4.19531 c -0.30908,0.12314 -0.65626,0.0851 -0.93164,-0.10156 C 302.16407,419.34844 302,419.03974 302,418.70703 V 406 c 0,-1.64501 -1.35499,-3 -3,-3 z" transform="matrix(0.26458333,0,0,0.26458333,-68.791649,173.96876)"/></g><text x="0" y="31.933333" fill="#000000" font-size="5px" font-weight="bold" font-family="'Helvetica Neue', Helvetica, Arial-Unicode, Arial, Sans-serif">Created by vecco</text><text x="0" y="36.933333000000005" fill="#000000" font-size="5px" font-weight="bold" font-family="'Helvetica Neue', Helvetica, Arial-Unicode, Arial, Sans-serif">from the Noun Project</text></svg>