<svg xmlns="http://www.w3.org/2000/svg" data-name="Layer 3" viewBox="0 0 48 60" x="0px" y="0px"><path d="M31.6221,27.2031a.7513.7513,0,0,1-.3721-.6484V17a1.25,1.25,0,0,0-2.5,0v9.5547a.75.75,0,0,1-.373.6484,3.239,3.239,0,0,0,.8339,5.9551,3.2893,3.2893,0,0,0,2.8077-.6113,3.2316,3.2316,0,0,0-.3965-5.3438Z"/><path d="M35.75,23.41V15a5.75,5.75,0,0,0-11.5,0v8.41A8.7288,8.7288,0,0,0,21.3174,31.1,8.751,8.751,0,0,0,38.75,30,8.7066,8.7066,0,0,0,35.75,23.41ZM32.9521,33.7217a4.9906,4.9906,0,0,1-4.081.8974A4.7377,4.7377,0,0,1,27.25,26.1465V17a2.75,2.75,0,0,1,5.5,0v9.1475a4.73,4.73,0,0,1,.2021,7.5742Z"/><path d="M13,18.75H10a.75.75,0,0,1,0-1.5h3a.75.75,0,0,1,0,1.5Z"/><path d="M13.9286,25.8173a.7532.7532,0,0,1-.53-1.2763l1.4141-1.4145a.75.75,0,0,1,1.06,1.0605l-1.414,1.4146A.7477.7477,0,0,1,13.9286,25.8173Z"/><path d="M15.3427,13.0884a.7446.7446,0,0,1-.53-.2149L13.3984,11.459a.75.75,0,1,1,1.0606-1.0606l1.414,1.4146A.7538.7538,0,0,1,15.3427,13.0884Z"/><path d="M21,12.25a5.75,5.75,0,0,0,0,11.5.75.75,0,0,0,.75-.75V13A.75.75,0,0,0,21,12.25Z"/><text x="0" y="63" fill="#000000" font-size="5px" font-weight="bold" font-family="'Helvetica Neue', Helvetica, Arial-Unicode, Arial, Sans-serif">Created by iconpixel</text><text x="0" y="68" fill="#000000" font-size="5px" font-weight="bold" font-family="'Helvetica Neue', Helvetica, Arial-Unicode, Arial, Sans-serif">from the Noun Project</text></svg>