<svg xmlns="http://www.w3.org/2000/svg" xmlns:xlink="http://www.w3.org/1999/xlink" version="1.1" x="0px" y="0px" viewBox="0 0 100 125" style="enable-background:new 0 0 100 100;" xml:space="preserve"><path d="M89.3349609,49.0576172C84.25,47.25,80.1494141,43.3535156,78.0839844,38.3671875  c-2.0644531-4.9863281-1.9208984-10.640625,0.3964844-15.5146484c0.1816406-0.3828125,0.1025391-0.8378906-0.1962891-1.1367188  c-0.2988281-0.3007812-0.7529297-0.3779297-1.1367188-0.1962891c-4.8730469,2.3173828-10.5273438,2.4609375-15.5146484,0.3964844  C56.6464844,19.8505859,52.75,15.75,50.9423828,10.6650391C50.8007812,10.2666016,50.4228516,10,50,10  s-0.8007812,0.2666016-0.9423828,0.6650391C47.25,15.75,43.3535156,19.8505859,38.3671875,21.9160156  c-4.9853516,2.0644531-10.6396484,1.9199219-15.5146484-0.3964844c-0.3828125-0.1816406-0.8378906-0.1025391-1.1367188,0.1962891  s-0.3779297,0.7539062-0.1962891,1.1367188c2.3173828,4.8740234,2.4609375,10.5283203,0.3964844,15.5146484  C19.8505859,43.3535156,15.75,47.25,10.6650391,49.0576172C10.2666016,49.1992188,10,49.5771484,10,50  s0.2666016,0.8007812,0.6650391,0.9423828C15.75,52.75,19.8505859,56.6464844,21.9160156,61.6328125  c2.0644531,4.9863281,1.9208984,10.640625-0.3964844,15.5146484c-0.1816406,0.3828125-0.1025391,0.8378906,0.1962891,1.1367188  c0.2988281,0.3007812,0.7539062,0.3789062,1.1367188,0.1962891c4.8740234-2.3183594,10.5283203-2.4619141,15.5146484-0.3964844  S47.25,84.25,49.0576172,89.3349609C49.1992188,89.7333984,49.5771484,90,50,90s0.8007812-0.2666016,0.9423828-0.6650391  C52.75,84.25,56.6464844,80.1494141,61.6328125,78.0839844c4.9853516-2.0644531,10.6396484-1.9199219,15.5146484,0.3964844  c0.3837891,0.1826172,0.8378906,0.1025391,1.1367188-0.1962891s0.3779297-0.7539062,0.1962891-1.1367188  c-2.3173828-4.8740234-2.4609375-10.5283203-0.3964844-15.5146484C80.1494141,56.6464844,84.25,52.75,89.3349609,50.9423828  C89.7333984,50.8007812,90,50.4228516,90,50S89.7333984,49.1992188,89.3349609,49.0576172z M76.2363281,60.8671875  C74.265625,65.625,74.1162109,70.9335938,75.7617188,75.7617188c-4.8291016-1.6455078-10.1347656-1.4960938-14.8945312,0.4746094  C56.1103516,78.2070312,52.2509766,81.8554688,50,86.4326172c-2.2509766-4.5771484-6.1103516-8.2255859-10.8671875-10.1962891  c-2.5849609-1.0703125-5.3310547-1.6035156-8.0751953-1.6035156c-2.3076172,0-4.6142578,0.3769531-6.8193359,1.1289062  c1.6455078-4.828125,1.4960938-10.1367188-0.4746094-14.8945312C21.7929688,56.1103516,18.1445312,52.2509766,13.5673828,50  c4.5771484-2.2509766,8.2255859-6.1103516,10.1962891-10.8671875C25.734375,34.375,25.8837891,29.0664062,24.2382812,24.2382812  c4.828125,1.6455078,10.1357422,1.4960938,14.8945312-0.4746094C43.8896484,21.7929688,47.7490234,18.1445312,50,13.5673828  c2.2509766,4.5771484,6.1103516,8.2255859,10.8671875,10.1962891c4.7597656,1.9707031,10.0673828,2.1210938,14.8945312,0.4746094  C74.1162109,29.0664062,74.265625,34.375,76.2363281,39.1328125C78.2070312,43.8896484,81.8554688,47.7490234,86.4326172,50  C81.8554688,52.2509766,78.2070312,56.1103516,76.2363281,60.8671875z"/><text x="0" y="115" fill="#000000" font-size="5px" font-weight="bold" font-family="'Helvetica Neue', Helvetica, Arial-Unicode, Arial, Sans-serif">Created by Made by Made</text><text x="0" y="120" fill="#000000" font-size="5px" font-weight="bold" font-family="'Helvetica Neue', Helvetica, Arial-Unicode, Arial, Sans-serif">from the Noun Project</text></svg>