<svg width="9" height="11" viewBox="0 0 9 11" fill="none" xmlns="http://www.w3.org/2000/svg">
<path d="M6.00872 6.13907C6.76733 5.61134 7.14662 4.89398 7.14662 3.98695C7.14662 3.26133 6.88689 2.63879 6.36741 2.11931C5.84793 1.59983 5.22539 1.3401 4.49977 1.3401C3.77415 1.3401 3.15161 1.59983 2.63213 2.11931C2.11265 2.63879 1.85292 3.26133 1.85292 3.98695C1.85292 4.89398 2.23221 5.61134 2.99082 6.13907L3.43608 6.46065V7.67276H5.56346V6.46065L6.00872 6.13907ZM1.87765 1.38957C2.60327 0.663952 3.4773 0.301147 4.49977 0.301147C5.52224 0.301147 6.39214 0.65983 7.10952 1.3772C7.82689 2.09458 8.18558 2.96449 8.18558 3.98695C8.18558 5.27328 7.65786 6.27924 6.60241 7.00486V8.21697C6.60241 8.36539 6.55294 8.48908 6.45399 8.58803C6.35504 8.68697 6.23136 8.73645 6.08293 8.73645H2.91661C2.76818 8.73645 2.6445 8.68697 2.54555 8.58803C2.4466 8.48908 2.39713 8.36539 2.39713 8.21697V7.00486C1.34168 6.27924 0.813965 5.27328 0.813965 3.98695C0.813965 2.96449 1.16852 2.0987 1.87765 1.38957ZM2.91661 10.3196V9.80013H6.08293V10.3196C6.08293 10.468 6.03346 10.5917 5.93451 10.6907C5.83557 10.7896 5.71188 10.8391 5.56346 10.8391H3.43608C3.28766 10.8391 3.16398 10.7896 3.06503 10.6907C2.96608 10.5917 2.91661 10.468 2.91661 10.3196Z" fill="black"/>
</svg>
