<svg width="16" height="15" viewBox="0 0 16 15" fill="none" xmlns="http://www.w3.org/2000/svg">
<path d="M0.805664 7.73102C0.805664 7.34715 0.843053 6.9259 0.917832 6.46726C1.42633 6.50215 1.90865 6.40245 2.3648 6.16814C2.82096 5.93383 3.17864 5.58985 3.43788 5.13619C3.69711 4.66758 3.81427 4.17903 3.78934 3.67053C3.76441 3.16203 3.60987 2.69591 3.32571 2.27216C3.98377 1.70384 4.75149 1.26514 5.6289 0.956055C5.86321 1.3798 6.18974 1.71755 6.6085 1.96931C7.02727 2.22106 7.48591 2.34694 7.98443 2.34694C8.48296 2.34694 8.94035 2.22106 9.35663 1.96931C9.7729 1.71755 10.0982 1.3798 10.3325 0.956055C11.1999 1.26514 11.9677 1.70384 12.6357 2.27216C12.4163 2.67597 12.3067 3.11093 12.3067 3.57705C12.3067 4.04318 12.4263 4.48312 12.6656 4.8969C12.9099 5.32065 13.2414 5.64967 13.6601 5.88398C14.0789 6.11829 14.5251 6.23544 14.9987 6.23544C15.1084 6.73895 15.1632 7.23748 15.1632 7.73102C15.1632 8.06005 15.1283 8.44141 15.0585 8.87513C14.5999 8.8851 14.1699 9.00849 13.7686 9.24529C13.3673 9.48209 13.047 9.80738 12.8077 10.2212C12.5534 10.6698 12.4325 11.1397 12.445 11.6307C12.4575 12.1218 12.5933 12.5742 12.8525 12.988C12.1795 13.6061 11.4367 14.0797 10.6241 14.4088C10.3898 13.98 10.062 13.6385 9.64079 13.3843C9.21953 13.13 8.75964 13.0029 8.26112 13.0029C7.72769 13.0029 7.24039 13.1463 6.79919 13.4329C6.35799 13.7196 6.03021 14.0997 5.81585 14.5733C4.97333 14.3041 4.19315 13.8828 3.47527 13.3095C3.75943 12.8908 3.91273 12.4284 3.93516 11.9224C3.95759 11.4164 3.8367 10.9291 3.57248 10.4604C3.30328 9.98684 2.92814 9.63165 2.44706 9.39485C1.96598 9.15805 1.46372 9.06956 0.940266 9.12938C0.850531 8.71062 0.805664 8.2445 0.805664 7.73102ZM6.07757 5.83164C5.55412 6.35509 5.2924 6.98821 5.2924 7.73102C5.2924 8.47382 5.55537 9.10819 6.08131 9.63414C6.60726 10.1601 7.24163 10.4231 7.98443 10.4231C8.72724 10.4231 9.36161 10.1601 9.88756 9.63414C10.4135 9.10819 10.6765 8.47382 10.6765 7.73102C10.6765 6.98821 10.4135 6.35384 9.88756 5.8279C9.36161 5.30195 8.72724 5.03898 7.98443 5.03898C7.24163 5.03898 6.60601 5.3032 6.07757 5.83164Z" fill="white"/>
</svg>
