<svg width="11" height="11" viewBox="0 0 11 11" fill="none" xmlns="http://www.w3.org/2000/svg">
<path d="M1.49099 8.38748L2.29477 7.56255L2.92932 8.19711L2.12555 9.02204L1.49099 8.38748ZM4.85415 10.1431V8.81052H5.74253V10.1431H4.85415ZM3.37351 3.28986C3.90937 2.75401 4.55097 2.48609 5.29834 2.48609C6.04571 2.48609 6.68379 2.75049 7.21259 3.27929C7.74139 3.80809 8.00579 4.44616 8.00579 5.19354C8.00579 5.94091 7.74139 6.57898 7.21259 7.10779C6.68379 7.63659 6.04571 7.90098 5.29834 7.90098C4.55097 7.90098 3.91289 7.63659 3.38409 7.10779C2.85529 6.57898 2.59089 5.94091 2.59089 5.19354C2.59089 4.44616 2.85176 3.81161 3.37351 3.28986ZM8.91532 4.74935H10.269V5.65888H8.91532V4.74935ZM7.66736 8.19711L8.30191 7.5837L9.10569 8.38748L8.47113 9.02204L7.66736 8.19711ZM9.10569 2.02075L8.30191 2.82452L7.66736 2.18996L8.47113 1.38619L9.10569 2.02075ZM5.74253 0.265137V1.59771H4.85415V0.265137H5.74253ZM1.68136 4.74935V5.65888H0.327637V4.74935H1.68136ZM2.92932 2.18996L2.29477 2.82452L1.49099 2.02075L2.12555 1.38619L2.92932 2.18996Z" fill="white"/>
</svg>
