<svg width="886" height="886" viewBox="0 0 886 886" fill="none" xmlns="http://www.w3.org/2000/svg">
<path d="M443 0L544.717 197.433L756.248 129.752L688.567 341.283L886 443L688.567 544.717L756.248 756.248L544.717 688.567L443 886L341.283 688.567L129.752 756.248L197.433 544.717L0 443L197.433 341.283L129.752 129.752L341.283 197.433L443 0Z" fill="#FD5353"/>
<path d="M367.202 374.091V505H343.295L286.342 422.607H285.384V505H257.706V374.091H281.996L338.501 456.42H339.652V374.091H367.202ZM434.302 506.918C424.203 506.918 415.51 504.872 408.223 500.781C400.978 496.648 395.396 490.81 391.475 483.267C387.555 475.682 385.595 466.712 385.595 456.357C385.595 446.257 387.555 437.393 391.475 429.766C395.396 422.138 400.914 416.193 408.031 411.932C415.19 407.67 423.585 405.54 433.216 405.54C439.693 405.54 445.723 406.584 451.305 408.672C456.93 410.717 461.831 413.807 466.007 417.94C470.226 422.074 473.507 427.273 475.851 433.537C478.194 439.759 479.366 447.045 479.366 455.398V462.876H396.461V446.001H453.734C453.734 442.081 452.882 438.608 451.177 435.582C449.473 432.557 447.108 430.192 444.082 428.487C441.099 426.74 437.626 425.866 433.663 425.866C429.529 425.866 425.865 426.825 422.669 428.743C419.515 430.618 417.044 433.153 415.254 436.349C413.464 439.503 412.548 443.018 412.505 446.896V462.94C412.505 467.798 413.4 471.996 415.19 475.533C417.022 479.07 419.6 481.797 422.924 483.714C426.248 485.632 430.19 486.591 434.75 486.591C437.775 486.591 440.545 486.165 443.059 485.312C445.574 484.46 447.725 483.182 449.515 481.477C451.305 479.773 452.669 477.685 453.606 475.213L478.791 476.875C477.512 482.926 474.892 488.21 470.929 492.727C467.008 497.202 461.937 500.696 455.716 503.21C449.537 505.682 442.399 506.918 434.302 506.918ZM515.801 505L489.082 406.818H516.632L531.845 472.784H532.74L548.592 406.818H575.63L591.738 472.401H592.569L607.527 406.818H635.012L608.358 505H579.529L562.654 443.253H561.44L544.565 505H515.801Z" fill="white"/>
</svg>
