<?xml version="1.0" encoding="utf-8"?>
<!-- Generator: Adobe Illustrator 24.3.0, SVG Export Plug-In . SVG Version: 6.00 Build 0)  -->
<svg version="1.1" id="Layer_1" xmlns="http://www.w3.org/2000/svg" xmlns:xlink="http://www.w3.org/1999/xlink" x="0px" y="0px"
	 viewBox="0 0 886 886" style="enable-background:new 0 0 886 886;" xml:space="preserve">
<style type="text/css">
	.st0{fill:#FD5353;}
	.st1{fill:#FFFFFF;}
</style>
<path class="st0" d="M443,0l101.7,197.4l211.5-67.7l-67.7,211.5L886,443L688.6,544.7l67.7,211.5l-211.5-67.7L443,886L341.3,688.6
	l-211.5,67.7l67.7-211.5L0,443l197.4-101.7l-67.7-211.5l211.5,67.7L443,0z"/>
<g>
	<path class="st1" d="M275.4,380.6v33.7h-16.8v101.1h-16.8V363.7h16.8v16.9H275.4z M275.4,448v-33.7h16.9V448H275.4z M292.3,464.8
		V448h16.8v16.8H292.3z M342.9,363.7v151.7H326v-16.8h-16.8v-33.7H326V363.7H342.9z"/>
	<path class="st1" d="M380.8,380.6v50.6h50.6V448h-50.6v50.6h67.4v16.8h-84.2V363.7h84.2v16.9H380.8z"/>
	<path class="st1" d="M469.3,397.4v-33.7h16.8v33.7H469.3z M486.1,448v-50.6H503V448H486.1z M503,481.7V448h16.9v33.7H503z
		 M519.8,515.4v-33.7h16.8v33.7H519.8z M536.7,481.7V448h16.8v33.7H536.7z M553.5,448v-50.6h16.9V448H553.5z M570.4,481.7V448h16.8
		v33.7H570.4z M587.2,515.4v-33.7h16.8v33.7H587.2z M604.1,481.7V448H621v33.7H604.1z M621,448v-50.6h16.8V448H621z M637.8,397.4
		v-33.7h16.9v33.7H637.8z"/>
</g>
</svg>
