<svg width="2302" height="2406" viewBox="0 0 2302 2406" fill="none" xmlns="http://www.w3.org/2000/svg">
<path fill-rule="evenodd" clip-rule="evenodd" d="M2269.27 1443.08L2275 1451.94C2327.85 1533.51 2298.95 1621.83 2208.09 1657.32L2187.33 1665.4C2110.12 1695.45 2032.91 1725.51 1955.34 1754.62C1937.22 1761.42 1928.2 1769.19 1927.43 1790.78C1925.16 1853.76 1921.7 1916.71 1918.23 1979.65C1916.62 2008.86 1915.01 2038.07 1913.52 2067.28C1908.72 2161.3 1831.92 2217.01 1740.12 2192.68C1722.2 2187.93 1704.28 2183.19 1686.36 2178.46C1615.01 2159.6 1543.67 2140.74 1472.57 2121C1454.82 2116.09 1445.06 2120.5 1434.15 2134.29C1377.56 2205.92 1320.24 2276.93 1262.8 2347.87C1200.11 2425.28 1108.63 2425.38 1045.06 2347.95C987.072 2277.31 929.286 2206.56 872.38 2135.06C861.107 2120.9 850.919 2117.69 833.673 2122.54C801.353 2131.65 768.868 2140.2 736.388 2148.75C682.56 2162.92 628.74 2177.09 575.697 2193.77C468.595 2227.46 389.88 2149.04 390.833 2059.03C391.431 2002.3 387.497 1945.52 383.556 1888.73C381.388 1857.46 379.22 1826.19 377.81 1794.92C376.958 1776.01 371.122 1766.67 352.474 1759.85C273.24 1730.86 194.529 1700.45 115.825 1670.05L90.9661 1660.45C7.15752 1628.09 -22.9519 1539.64 24.9349 1463.61C74.6224 1384.69 125.322 1306.41 176.79 1228.65C188.013 1211.7 188.333 1199.84 176.872 1182.79C125.908 1106.94 76.138 1030.3 26.6028 953.532C-25.6081 872.621 2.09112 785.079 91.3646 749.797C177.216 715.867 263.411 682.787 349.845 650.396C367.54 643.738 374.146 635.275 374.837 615.406C377.993 523.194 382.001 430.931 388.552 338.904C395.556 240.698 465.783 191.542 586.283 220.35C601.513 224.444 618.208 228.887 636.005 233.621C690.74 248.183 755.861 265.508 820.646 283.965C843.306 290.411 856.81 287.016 871.798 267.624C917.927 207.904 965.482 149.266 1013.02 90.6327C1021.7 79.9335 1030.38 69.2352 1039.04 58.5302C1101.52 -18.6398 1194.83 -18.5069 1256.99 58.2382C1275.89 81.577 1294.87 104.853 1313.85 128.129C1351.97 174.885 1390.09 221.635 1427.6 268.871C1439.99 284.469 1450.63 289.058 1470.82 283.223C1552.91 259.496 1635.47 237.444 1718.03 215.391L1734.82 210.907C1828.55 185.838 1904.53 241.388 1909.54 337.79C1911.18 369.059 1912.91 400.325 1914.65 431.593C1917.96 491.391 1921.27 551.192 1923.87 611.029C1924.69 630.023 1931.4 639.891 1949.02 646.417C1990.11 661.604 2031.05 677.15 2071.99 692.696C2114.44 708.811 2156.89 724.928 2199.49 740.644C2297.89 776.934 2327.82 864.504 2270.91 952.842L2250.61 984.379C2209.1 1048.88 2167.59 1113.37 2125.05 1177.19C2113.83 1193.98 2112.95 1205.47 2124.62 1222.76C2173.76 1295.59 2221.51 1369.34 2269.27 1443.08ZM964.333 979.217H1429.17C1645.7 979.217 1821.34 1157.79 1813.77 1374.2C1807.71 1584.56 1630.56 1748 1420.09 1748H1233.85C1199.02 1748 1170.26 1719.25 1170.26 1684.44V1570.94C1170.26 1536.13 1199.02 1507.38 1233.85 1507.38H1427.66C1512.45 1507.38 1579.08 1436.25 1571.5 1349.99C1565.45 1275.83 1498.83 1219.84 1424.63 1219.84H964.333V1498.3C964.333 1536.13 923.45 1555.8 897.712 1530.08L499.493 1130.55C482.837 1113.91 482.837 1085.15 499.493 1068.5L897.712 668.978C923.45 644.766 964.333 662.926 964.333 700.76V979.217Z" fill="#A2A3A3"/>
</svg>