<svg width="10" height="10" viewBox="0 0 10 10" fill="none" xmlns="http://www.w3.org/2000/svg">
<path d="M1.80462 1.36544C2.73621 0.545639 3.86032 0.135742 5.17698 0.135742C6.49364 0.135742 7.61775 0.542534 8.54935 1.35613C9.48095 2.16972 9.94674 3.1541 9.94674 4.30928C9.94674 4.7316 9.87532 5.1446 9.73247 5.5483C9.58963 5.95199 9.38778 6.32152 9.12694 6.65689C8.86609 6.99227 8.55556 7.29037 8.19534 7.55122C7.98418 7.68786 7.89723 7.87417 7.9345 8.11018L8.10218 9.33988C8.1146 9.37714 8.1146 9.41751 8.10218 9.46099C8.08976 9.50446 8.07113 9.54172 8.04629 9.57278C8.02145 9.60383 7.98729 9.62867 7.94381 9.6473C7.90034 9.66594 7.85997 9.67525 7.82271 9.67525H6.36942V8.63187C6.36942 8.5325 6.31974 8.48281 6.22037 8.48281H5.92226C5.82289 8.48281 5.7732 8.5325 5.7732 8.63187V9.67525H4.58076V8.63187C4.58076 8.5325 4.53108 8.48281 4.43171 8.48281H4.1336C4.03423 8.48281 3.98454 8.5325 3.98454 8.63187V9.67525H2.53126C2.44431 9.67525 2.37289 9.64109 2.31699 9.57278C2.2611 9.50446 2.23936 9.42683 2.25178 9.33988L2.41947 8.11018C2.45673 7.87417 2.36978 7.68786 2.15862 7.55122C1.61208 7.15374 1.18356 6.67553 0.873023 6.11657C0.562491 5.55761 0.407227 4.95519 0.407227 4.30928C0.407227 3.1541 0.873018 2.17283 1.80462 1.36544ZM2.54989 5.74393C2.78589 5.97994 3.06537 6.09794 3.38832 6.09794C3.71128 6.09794 3.99075 5.97994 4.22676 5.74393C4.46276 5.50793 4.58076 5.22845 4.58076 4.9055C4.58076 4.58254 4.46276 4.30307 4.22676 4.06706C3.99075 3.83106 3.71128 3.71306 3.38832 3.71306C3.06537 3.71306 2.78589 3.83106 2.54989 4.06706C2.31389 4.30307 2.19588 4.58254 2.19588 4.9055C2.19588 5.22845 2.31389 5.50793 2.54989 5.74393ZM6.12721 5.74393C6.36321 5.97994 6.64269 6.09794 6.96564 6.09794C7.28859 6.09794 7.56807 5.97994 7.80407 5.74393C8.04008 5.50793 8.15808 5.22845 8.15808 4.9055C8.15808 4.58254 8.04008 4.30307 7.80407 4.06706C7.56807 3.83106 7.28859 3.71306 6.96564 3.71306C6.64269 3.71306 6.36321 3.83106 6.12721 4.06706C5.8912 4.30307 5.7732 4.58254 5.7732 4.9055C5.7732 5.22845 5.8912 5.50793 6.12721 5.74393Z" fill="white"/>
</svg>
