<svg width="12" height="12" viewBox="0 0 12 12" fill="none" xmlns="http://www.w3.org/2000/svg">
<path d="M5.96599 11.1693C6.68928 11.1693 7.37146 11.0296 8.01255 10.7501C8.65364 10.4789 9.21253 10.1049 9.68924 9.62821C10.166 9.1515 10.5399 8.59261 10.8112 7.95151C11.0906 7.31042 11.2303 6.62824 11.2303 5.90496C11.2303 5.18167 11.0906 4.4995 10.8112 3.8584C10.5399 3.21731 10.166 2.65842 9.68924 2.18171C9.21253 1.705 8.65364 1.33103 8.01255 1.0598C7.37146 0.780348 6.68928 0.640625 5.96599 0.640625C5.24271 0.640625 4.56053 0.780348 3.91944 1.0598C3.27834 1.33103 2.71945 1.705 2.24274 2.18171C1.76603 2.65842 1.39207 3.21731 1.12083 3.8584C0.841384 4.4995 0.70166 5.18167 0.70166 5.90496C0.70166 6.62824 0.841384 7.31042 1.12083 7.95151C1.39207 8.59261 1.76603 9.1515 2.24274 9.62821C2.71945 10.1049 3.27834 10.4789 3.91944 10.7501C4.56053 11.0296 5.24271 11.1693 5.96599 11.1693ZM7.80296 4.32689C8.01666 4.32689 8.20159 4.40292 8.35775 4.55497C8.51391 4.70702 8.59199 4.89401 8.59199 5.11592C8.59199 5.32962 8.51391 5.5125 8.35775 5.66455C8.20159 5.8166 8.01666 5.89263 7.80296 5.89263C7.58926 5.89263 7.40434 5.8166 7.24817 5.66455C7.09201 5.5125 7.01393 5.32962 7.01393 5.11592C7.01393 4.89401 7.09201 4.70702 7.24817 4.55497C7.40434 4.40292 7.58926 4.32689 7.80296 4.32689ZM5.54682 7.96384C5.67833 7.99672 5.81599 8.01316 5.95983 8.01316C6.10366 8.01316 6.24544 7.99672 6.38517 7.96384C6.45914 7.95562 6.529 7.94124 6.59475 7.92069C6.66051 7.90014 6.72215 7.87343 6.77968 7.84056C6.84544 7.8159 6.90913 7.78713 6.97078 7.75425C7.03242 7.72138 7.0879 7.6885 7.13721 7.65563C7.19475 7.61453 7.25023 7.57343 7.30365 7.53234C7.35708 7.49124 7.40844 7.44604 7.45776 7.39672C7.50707 7.34741 7.55228 7.29604 7.59337 7.24262C7.63447 7.18919 7.67557 7.13371 7.71666 7.07618L8.57967 7.66795C8.52213 7.75015 8.46254 7.83028 8.4009 7.90836C8.33926 7.98644 8.27145 8.06247 8.19748 8.13644C8.12351 8.21042 8.04748 8.27822 7.9694 8.33987C7.89132 8.40151 7.81118 8.4611 7.72899 8.51863C7.6468 8.57617 7.5605 8.62959 7.47009 8.6789C7.37968 8.72822 7.28927 8.77342 7.19886 8.81452C7.10023 8.85561 7.0016 8.89054 6.90297 8.91931C6.80434 8.94808 6.7016 8.97479 6.59475 8.99945C6.49612 9.01589 6.39339 9.03027 6.28654 9.0426C6.17969 9.05493 6.07284 9.06109 5.96599 9.06109C5.85914 9.06109 5.7523 9.05493 5.64545 9.0426C5.5386 9.03027 5.43175 9.01589 5.3249 8.99945C5.22627 8.97479 5.12765 8.94808 5.02902 8.91931C4.93039 8.89054 4.83176 8.85561 4.73313 8.81452C4.64272 8.77342 4.55231 8.72822 4.4619 8.6789C4.37149 8.62959 4.28519 8.57617 4.203 8.51863C4.12081 8.4611 4.04067 8.40151 3.96259 8.33987C3.88451 8.27822 3.80848 8.21042 3.73451 8.13644C3.66054 8.06247 3.59273 7.98644 3.53109 7.90836C3.46944 7.83028 3.40985 7.75015 3.35232 7.66795L4.21532 7.07618C4.25642 7.13371 4.29752 7.18919 4.33861 7.24262C4.37971 7.29604 4.42491 7.34741 4.47423 7.39672C4.52354 7.44604 4.57491 7.49124 4.62833 7.53234C4.68176 7.57343 4.73724 7.61453 4.79477 7.65563C4.84409 7.6885 4.89956 7.72138 4.96121 7.75425C5.02285 7.78713 5.08655 7.8159 5.1523 7.84056C5.20984 7.87343 5.27148 7.90014 5.33723 7.92069C5.40299 7.94124 5.47285 7.95562 5.54682 7.96384ZM4.12902 4.32689C4.34272 4.32689 4.52765 4.40497 4.68381 4.56114C4.83998 4.7173 4.91806 4.90223 4.91806 5.11592C4.91806 5.32962 4.83998 5.51455 4.68381 5.67071C4.52765 5.82688 4.34272 5.90496 4.12902 5.90496C3.90711 5.90496 3.72012 5.82688 3.56807 5.67071C3.41602 5.51455 3.33999 5.32962 3.33999 5.11592C3.33999 4.90223 3.41602 4.7173 3.56807 4.56114C3.72012 4.40497 3.90711 4.32689 4.12902 4.32689Z" fill="white"/>
</svg>
