<svg width="11" height="11" viewBox="0 0 11 11" fill="none" xmlns="http://www.w3.org/2000/svg">
<path d="M3.75395 10.9416C3.65944 10.9416 3.57843 10.9146 3.51092 10.8875C3.2949 10.7792 3.11938 10.5356 3.21389 10.2378L3.94297 7.61186L1.22916 7.74722C0.905119 7.76076 0.716097 7.54419 0.66209 7.31408C0.608084 7.08397 0.689094 6.81326 0.986128 6.6779L3.48392 5.60858L1.68821 3.56469C1.47218 3.32105 1.52619 3.0368 1.67471 2.86084C1.82323 2.68488 2.09326 2.56305 2.36329 2.72548L4.76657 4.01137L5.23912 1.33131C5.29313 1.01999 5.54966 0.871094 5.77919 0.871094C6.00871 0.871094 6.26524 1.00645 6.31925 1.33131L6.7918 4.01137L9.18158 2.71195C9.46511 2.56305 9.73515 2.67134 9.87016 2.8473C10.0187 3.02327 10.0592 3.32105 9.85666 3.55116L8.07445 5.60858L10.5857 6.6779C10.8828 6.79972 10.9638 7.08397 10.9098 7.31408C10.8558 7.54419 10.6668 7.76076 10.3427 7.74722L7.6289 7.61186L8.34448 10.2378C8.42549 10.5491 8.26347 10.7792 8.04745 10.8875C7.84493 10.9822 7.54789 10.9687 7.35887 10.7115L5.77919 8.49168L4.186 10.698C4.06449 10.874 3.90247 10.9416 3.75395 10.9416Z" fill="white"/>
</svg>
