<svg xmlns="http://www.w3.org/2000/svg" viewBox="0 0 512 640" x="0px" y="0px"><title>no food</title><path d="M497,46a15,15,0,0,0-15,15v50a25,25,0,0,1-50,0V61a15,15,0,0,0-30,0v50a55.07,55.07,0,0,0,40,52.9V284.47l22.32,0,7.68,0V163.9A55.07,55.07,0,0,0,512,111V61A15,15,0,0,0,497,46Z"/><path d="M110,101A55,55,0,0,0,0,101v30.17a44.9,44.9,0,0,0,40,44.57V284.47l22.32,0,7.68,0V175.74a44.9,44.9,0,0,0,40-44.57Z"/><path d="M256,101c-85.47,0-155,69.53-155,155s69.53,155,155,155,155-69.53,155-155S341.47,101,256,101Zm50.61,184.39a15,15,0,0,1-21.22,21.22L256,277.21l-29.39,29.4a15,15,0,0,1-21.22-21.22L234.79,256l-29.4-29.39a15,15,0,0,1,21.22-21.22L256,234.79l29.39-29.4a15,15,0,0,1,21.22,21.22L277.21,256Z"/><path d="M417,426a40,40,0,0,0,80,0V314.67c-21.62-.14-48.88-.21-80-.22Z"/><path d="M15,426a40,40,0,0,0,80,0V314.67c-21.62-.14-48.88-.21-80-.22Z"/><text x="0" y="527" fill="#000000" font-size="5px" font-weight="bold" font-family="'Helvetica Neue', Helvetica, Arial-Unicode, Arial, Sans-serif">Created by Peter Lakenbrink</text><text x="0" y="532" fill="#000000" font-size="5px" font-weight="bold" font-family="'Helvetica Neue', Helvetica, Arial-Unicode, Arial, Sans-serif">from the Noun Project</text></svg>