<svg xmlns="http://www.w3.org/2000/svg" data-name="Layer 1" viewBox="0 0 48 60" x="0px" y="0px"><title>law solid icons</title><path d="M47.82,23.33a22.82,22.82,0,0,0-9.57-8.54A31.85,31.85,0,0,0,24,11.53,31.85,31.85,0,0,0,9.75,14.79,22.82,22.82,0,0,0,.18,23.33a1.34,1.34,0,0,0,0,1.34,22.82,22.82,0,0,0,9.57,8.54A31.85,31.85,0,0,0,24,36.47a31.85,31.85,0,0,0,14.25-3.26,22.82,22.82,0,0,0,9.57-8.54A1.34,1.34,0,0,0,47.82,23.33ZM24,32.9A8.91,8.91,0,1,1,32.9,24,8.9,8.9,0,0,1,24,32.9Z"/><path d="M27.86,24a2.23,2.23,0,0,1-.8-4.31A5.3,5.3,0,1,0,29.27,24a4,4,0,0,0,0-.49A2.18,2.18,0,0,1,27.86,24Zm-2.72,3a1.16,1.16,0,1,1,1.16-1.16A1.16,1.16,0,0,1,25.14,27Z"/><text x="0" y="63" fill="#000000" font-size="5px" font-weight="bold" font-family="'Helvetica Neue', Helvetica, Arial-Unicode, Arial, Sans-serif">Created by tulpahn</text><text x="0" y="68" fill="#000000" font-size="5px" font-weight="bold" font-family="'Helvetica Neue', Helvetica, Arial-Unicode, Arial, Sans-serif">from the Noun Project</text></svg>