<svg xmlns="http://www.w3.org/2000/svg" xmlns:xlink="http://www.w3.org/1999/xlink" xml:space="preserve" style="shape-rendering:geometricPrecision;text-rendering:geometricPrecision;image-rendering:optimizeQuality;" viewBox="0 0 18.0365 17.196" x="0px" y="0px" fill-rule="evenodd" clip-rule="evenodd"><defs><style type="text/css">
   
    .fil0 {fill:black}
   
  </style></defs><g><path class="fil0" d="M8.41811 4.8927c1.242,0.928834 0.382064,2.92937 -1.15924,2.64098 -1.02624,1.29953 -3.04994,1.14095 -3.85882,-0.30828 -1.06699,1.4574 -3.40004,0.707658 -3.40004,-1.11014 0,-1.06699 0.880799,-1.91316 1.94539,-1.88004 0.104328,-1.27378 1.54539,-1.9533 2.59383,-1.25061 0.642841,-0.958579 1.75458,-1.15605 2.64177,-0.796448 1.07836,0.436937 1.60364,1.61367 1.23711,2.70455z"/><path class="fil0" d="M9.53163 2.58024c-1.11556,0.834362 -0.343174,2.63139 1.04142,2.37239 0.92182,1.16732 2.73971,1.02491 3.46637,-0.276937 0.95849,1.30921 3.05421,0.635738 3.05421,-0.997292 0,-0.958401 -0.791209,-1.71853 -1.74748,-1.68879 -0.0938512,-1.14424 -1.38823,-1.75467 -2.33003,-1.12346 -0.577491,-0.861087 -1.5762,-1.0384 -2.3731,-0.715471 -0.968701,0.392541 -1.44062,1.44959 -1.11139,2.42957z"/><path class="fil0" d="M17.3046 9.41274c1.53039,1.14459 0.470766,3.60994 -1.42863,3.2546 -1.26464,1.60151 -3.75849,1.40599 -4.75534,-0.379933 -1.31489,1.79605 -4.18992,0.872097 -4.18992,-1.36808 0,-1.31481 1.08546,-2.35756 2.39734,-2.3168 0.128657,-1.56963 1.90446,-2.4071 3.19645,-1.54113 0.792186,-1.18126 2.16222,-1.42455 3.25549,-0.981487 1.32892,0.538513 1.97629,1.98855 1.52462,3.33283z"/></g><text x="0" y="28.7568" fill="#000000" font-size="5px" font-weight="bold" font-family="'Helvetica Neue', Helvetica, Arial-Unicode, Arial, Sans-serif">Created by sarah</text><text x="0" y="33.7568" fill="#000000" font-size="5px" font-weight="bold" font-family="'Helvetica Neue', Helvetica, Arial-Unicode, Arial, Sans-serif">from the Noun Project</text></svg>