<svg xmlns="http://www.w3.org/2000/svg" viewBox="0 0 36 45" x="0px" y="0px"><title>Монтажная область 86</title><path d="M32,16a1.96758,1.96758,0,0,0-1.72,1H27.95a9.47757,9.47757,0,0,0-.37-1.85l2.82-1.23a1.00321,1.00321,0,0,0-.8-1.84L26.82,13.3a9.92535,9.92535,0,0,0-1.08-1.62l2.75-2.75A2.09424,2.09424,0,0,0,29,9a2,2,0,1,0-2-2,2.09424,2.09424,0,0,0,.07.51l-2.75,2.75a10.04613,10.04613,0,0,0-1.53-1.04l1.14-2.85a1.00089,1.00089,0,0,0-1.86-.74L20.94,8.44A10.261,10.261,0,0,0,19,8.05V5.72A1.9677,1.9677,0,0,0,20,4a2,2,0,0,0-4,0,1.9677,1.9677,0,0,0,1,1.72V8.05a9.47609,9.47609,0,0,0-1.85.37L13.92,5.6a1.00317,1.00317,0,1,0-1.84.8L13.3,9.18a9.92535,9.92535,0,0,0-1.62,1.08L8.93,7.51A2.09424,2.09424,0,0,0,9,7,2,2,0,1,0,7,9a2.09424,2.09424,0,0,0,.51-.07l2.75,2.75a10.05,10.05,0,0,0-1.04,1.53L6.37,12.07a1.00089,1.00089,0,1,0-.74,1.86l2.81,1.13A10.26,10.26,0,0,0,8.05,17H5.72A1.96758,1.96758,0,0,0,4,16a2,2,0,0,0,0,4,1.9677,1.9677,0,0,0,1.72-1H8.05a9.47609,9.47609,0,0,0,.37,1.85L5.6,22.08A1.00113,1.00113,0,0,0,6,24a1.1405,1.1405,0,0,0,.4-.08L9.18,22.7a9.92793,9.92793,0,0,0,1.08,1.62L7.51,27.07A2.09133,2.09133,0,0,0,7,27a2,2,0,1,0,2,2,2.09384,2.09384,0,0,0-.07-.51l2.75-2.75a10.04578,10.04578,0,0,0,1.53,1.04l-1.14,2.85a1.011,1.011,0,0,0,.56,1.3A.9712.9712,0,0,0,13,31a1.00492,1.00492,0,0,0,.93-.63l1.13-2.81a10.261,10.261,0,0,0,1.94.39v2.33A1.96787,1.96787,0,0,0,16,32a2,2,0,0,0,4,0,1.96787,1.96787,0,0,0-1-1.72V27.95a9.47175,9.47175,0,0,0,1.85-.37l1.23,2.82A1.00949,1.00949,0,0,0,23,31a1.1405,1.1405,0,0,0,.4-.08,1.00806,1.00806,0,0,0,.52-1.32L22.7,26.82a9.92921,9.92921,0,0,0,1.62-1.08l2.75,2.75A2.09384,2.09384,0,0,0,27,29a2,2,0,1,0,2-2,2.09133,2.09133,0,0,0-.51.07l-2.75-2.75a10.05346,10.05346,0,0,0,1.04-1.53l2.85,1.14A.9712.9712,0,0,0,30,24a1.00032,1.00032,0,0,0,.37-1.93l-2.81-1.13A10.261,10.261,0,0,0,27.95,19h2.33A1.9677,1.9677,0,0,0,32,20a2,2,0,0,0,0-4Zm-18.447.89453a1,1,0,0,1-.44721-1.3418l.99988-2a1,1,0,1,1,1.78882.89454l-.99988,2a1.00024,1.00024,0,0,1-1.34161.44726ZM15,22a1,1,0,1,1,1-1A1,1,0,0,1,15,22Zm6.44733-.10547a1.00025,1.00025,0,0,1-1.34162-.44726l-.99988-2a1,1,0,1,1,1.78882-.89454l.99988,2A1,1,0,0,1,21.44733,21.89453ZM21,16a1,1,0,1,1,1-1A1,1,0,0,1,21,16Z"/><text x="0" y="51" fill="#000000" font-size="5px" font-weight="bold" font-family="'Helvetica Neue', Helvetica, Arial-Unicode, Arial, Sans-serif">Created by Solomakhina Maria</text><text x="0" y="56" fill="#000000" font-size="5px" font-weight="bold" font-family="'Helvetica Neue', Helvetica, Arial-Unicode, Arial, Sans-serif">from the Noun Project</text></svg>