<svg xmlns="http://www.w3.org/2000/svg" viewBox="0 0 96 120" x="0px" y="0px"><title>Artboard 53</title><path d="M88.3921,64.0385,72.7789,60.9174l12.42-9.3163a2,2,0,0,0-1.5917-3.5625L68.3415,51.0933,81.6636,31.1091A2,2,0,0,0,78.89,28.3357L58.7322,41.7731l3.24-19.4451A2,2,0,0,0,58.4373,20.75L44,38.7966,29.5626,20.75a2,2,0,0,0-3.5351,1.5781l3.18,19.0779L17.2,32.3982a2,2,0,0,0-3.0957,2.2343L21.42,56.5815,7.516,60.058a2.0008,2.0008,0,0,0-.5449,3.6563l20,12A1.9886,1.9886,0,0,0,28,75.9993h6l-4-16,8,4,4-12,4,12,12-8-4,12,12-4-6,12a2.02,2.02,0,0,0,.4844-.0586l28-8a2,2,0,0,0-.0918-3.9023Z"/><text x="0" y="111" fill="#000000" font-size="5px" font-weight="bold" font-family="'Helvetica Neue', Helvetica, Arial-Unicode, Arial, Sans-serif">Created by Nociconist</text><text x="0" y="116" fill="#000000" font-size="5px" font-weight="bold" font-family="'Helvetica Neue', Helvetica, Arial-Unicode, Arial, Sans-serif">from the Noun Project</text></svg>