<svg xmlns="http://www.w3.org/2000/svg" xmlns:xlink="http://www.w3.org/1999/xlink" version="1.1" x="0px" y="0px" viewBox="0 0 512 640" enable-background="new 0 0 512 512" xml:space="preserve"><path fill-rule="evenodd" clip-rule="evenodd" d="M407.144,341.773l-34.816,46.896l0.405,65.673H128.408l0.302-56.742  l-26.087-51.766V242.705c2.537,0.504,5.179,0.705,7.818,0.705h20.908c11.775,0,22.535-4.664,30.453-12.281  c0.1-0.203,0.304-0.404,0.506-0.503c1.217-1.321,2.438-2.645,3.553-4.063c1.119,1.418,2.235,2.741,3.452,3.958h0.102l0,0v0.104  c6.802,6.798,15.835,11.364,25.783,12.484c-4.264,6.798-6.803,14.819-6.803,23.446v21.011c0,11.064,4.162,21.216,10.964,28.931  l0.102,0.101l0,0l0,0l0,0v0.102h0.102v0.102l0,0h0.102l0,0v0.102h0.101l0,0v0.102l0,0l0,0h0.102v0.102l0,0h0.103v0.102l0,0l0,0h0.1  v0.102l0,0l0,0h0.106v0.102l0,0l0,0l0.098,0.101l0,0l0,0l0,0l0.104,0.103l0,0l0,0l0.098,0.1l0,0l0,0l0,0v0.102h0.104l0,0l0,0  l0.099,0.102l0,0l0,0v0.102h0.105l0,0l0,0l0.098,0.102l0,0l0,0l0,0v0.102h0.104l0,0v0.102h0.098l0,0l0,0l0.106,0.102l0,0l0,0v0.102  c7.916,7.92,18.875,12.792,30.958,12.792h166.267c3.043,0,5.986-0.305,8.83-0.912L407.144,341.773z M216.414,312.742  c0.406,0.305,0.812,0.607,1.115,0.811l0.305,0.203l0.305,0.203l0.102,0.102l0.1,0.102l0.508,0.305l0.203,0.102l0.51,0.307  l0.098,0.102l0.512,0.304l0.203,0.103l0.506,0.304h0.103l0.102,0.102c0.405,0.203,0.811,0.406,1.217,0.607l0.202,0.103l0.508,0.202  l0.104,0.102l0,0l0.608,0.203l0.203,0.102c0.405,0.203,0.811,0.405,1.317,0.508l0.103,0.1h0.102l0.506,0.203h0.102l0.305,0.102  l0.406,0.203h0.104l0.504,0.102l0.104,0.102h0.203l0.608,0.206h0.101l0,0l0.71,0.203h0.103l0.71,0.203h0.101l0.611,0.102h0.099  h0.105l0.608,0.102l0.202,0.102l0.608,0.1h0.102l0,0h0.103h0.708v0.104h0.711h0.102h0.102l0.608,0.1h0.104h0.098h0.715h0.202h0.71  h157.535c17.967,0,32.687-14.718,32.687-32.585v-19.894c0-17.968-14.72-32.687-32.687-32.687H270.922h-34.41  c-17.968,0-32.686,14.719-32.686,32.687v19.894c0,7.106,2.335,13.706,6.293,19.084l0.203,0.305l0.102,0.202l0.102,0.102l0.304,0.304  v0.104l0.304,0.305v0.102l0.305,0.305l0.305,0.404l0,0l0.203,0.203l0.202,0.203l0.406,0.508l0.308,0.305l0.098,0.101l0.511,0.507  l0,0l0,0l0.406,0.405l0.202,0.203l0.406,0.409l0,0l0.305,0.203l0.1,0.102l0.306,0.304l0,0l0.409,0.305l0.098,0.102l0.202,0.101  l0.105,0.103l0.405,0.304l0,0V312.742z M401.051,57.658h-21.009c-6.903,0-13.198,2.84-17.765,7.407l0,0l0,0  c-4.568,4.57-7.31,10.861-7.31,17.764v55.425v61.41c-0.101,6.902,2.741,13.197,7.31,17.764l0,0  c4.566,4.568,10.861,7.411,17.765,7.411h21.009c6.903,0,13.198-2.843,17.664-7.411c4.567-4.566,7.409-10.861,7.409-17.764V82.829  c0-6.902-2.842-13.193-7.409-17.764C414.249,60.498,407.954,57.658,401.051,57.658L401.051,57.658z M311.119,57.658h-20.911  c-6.903,0-13.194,2.84-17.765,7.407l0,0l0,0c-4.568,4.57-7.41,10.861-7.41,17.764v116.835c0,6.902,2.842,13.197,7.41,17.764l0,0  c2.437,2.435,5.382,4.365,8.629,5.686h0.103h0.102l0.101,0.1h0.102c0.305,0.104,0.608,0.307,1.015,0.404h0.102l0.304,0.105H283l0,0  l0.102,0.098h0.203h0.101l0.204,0.105c0.304,0.098,0.611,0.203,0.915,0.203l0.204,0.098h0.1h0.204l0.101,0.105l0,0h0.102h0.203  h0.102l0.203,0.098l0,0h0.101h0.102h0.103h0.1l0.103,0.104h0.102h0.101h0.102h0.102h0.103h0.101l0.102,0.102h0.102h0.101h0.103  h0.102h0.1h0.103l0,0h0.202l0.102,0.102l0,0h0.203h0.105h0.101h0.102h0.102h0.103h0.1h0.103h0.102h0.101h0.102h0.102h0.102h0.102  h0.102h0.101l0.102,0.102h0.103h0.1h0.102h0.204h20.911c6.899,0,13.193-2.843,17.762-7.411c4.567-4.566,7.409-10.861,7.409-17.764  v-39.991V82.829c0-6.902-2.842-13.193-7.409-17.764C324.313,60.498,318.019,57.658,311.119,57.658L311.119,57.658z M221.285,57.658  h-21.013c-6.903,0-13.195,2.84-17.766,7.407l0,0l0,0c-4.565,4.57-7.308,10.861-7.308,17.764v116.835  c0,6.902,2.742,13.197,7.308,17.764l0,0c4.57,4.568,10.862,7.411,17.766,7.411h21.013c6.697,0,12.789-2.742,17.355-7.005  l0.406-0.406c4.57-4.566,7.309-10.861,7.309-17.764V82.829c0-6.902-2.738-13.193-7.309-17.764  C234.479,60.498,228.185,57.658,221.285,57.658L221.285,57.658z M131.35,57.658h-20.908c-6.903,0-13.198,2.84-17.764,7.407l0,0l0,0  c-4.568,4.57-7.411,10.861-7.411,17.764v116.835c0,6.902,2.843,13.197,7.411,17.764l0,0c4.565,4.568,10.86,7.411,17.764,7.411  h20.908c6.803,0,12.894-2.742,17.359-7.005l0.406-0.406c4.566-4.566,7.409-10.861,7.409-17.764V82.829  c0-6.902-2.843-13.193-7.409-17.764C144.545,60.498,138.252,57.658,131.35,57.658L131.35,57.658z"/><text x="0" y="527" fill="#000000" font-size="5px" font-weight="bold" font-family="'Helvetica Neue', Helvetica, Arial-Unicode, Arial, Sans-serif">Created by Airen99</text><text x="0" y="532" fill="#000000" font-size="5px" font-weight="bold" font-family="'Helvetica Neue', Helvetica, Arial-Unicode, Arial, Sans-serif">from the Noun Project</text></svg>