<svg xmlns="http://www.w3.org/2000/svg" xmlns:xlink="http://www.w3.org/1999/xlink" version="1.1" x="0px" y="0px" viewBox="0 0 90 112.5" style="enable-background:new 0 0 90 90;" xml:space="preserve"><path d="M30,82.2c-0.7,0-1.3-0.2-1.8-0.4C26.6,81,25.3,79.2,26,77l5.4-19.4l-20.1,1c-2.4,0.1-3.8-1.5-4.2-3.2  c-0.4-1.7,0.2-3.7,2.4-4.7L28,42.8L14.7,27.7c-1.6-1.8-1.2-3.9-0.1-5.2s3.1-2.2,5.1-1L37.5,31L41,11.2c0.4-2.3,2.3-3.4,4-3.4  c1.7,0,3.6,1,4,3.4L52.5,31l17.7-9.6c2.1-1.1,4.1-0.3,5.1,1c1.1,1.3,1.4,3.5-0.1,5.2L62,42.8l18.6,7.9c2.2,0.9,2.8,3,2.4,4.7  s-1.8,3.3-4.2,3.2l-20.1-1L64,77c0.6,2.3-0.6,4-2.2,4.8c-1.5,0.7-3.7,0.6-5.1-1.3L45,64.1L33.2,80.4C32.3,81.7,31.1,82.2,30,82.2z"/><text x="0" y="105" fill="#000000" font-size="5px" font-weight="bold" font-family="'Helvetica Neue', Helvetica, Arial-Unicode, Arial, Sans-serif">Created by Anjully Lozano</text><text x="0" y="110" fill="#000000" font-size="5px" font-weight="bold" font-family="'Helvetica Neue', Helvetica, Arial-Unicode, Arial, Sans-serif">from the Noun Project</text></svg>