<svg xmlns="http://www.w3.org/2000/svg" xmlns:xlink="http://www.w3.org/1999/xlink" xml:space="preserve" version="1.1" style="shape-rendering:geometricPrecision;text-rendering:geometricPrecision;image-rendering:optimizeQuality;" viewBox="0 0 2539.98 3174.975" x="0px" y="0px" fill-rule="evenodd" clip-rule="evenodd"><defs><style type="text/css">
   
    .fil0 {fill:black}
   
  </style></defs><g><path class="fil0" d="M1562.11 1223.81c97.8,179.81 115.28,366.93 -1.14,545.64 -136.8,210 -417.19,290.33 -640.1,170.53 -113.36,-60.92 -202.79,-153.75 -246.92,-275.79 -38.58,-106.67 -37.63,-223.75 -0.69,-330.71 37.96,-109.91 112.32,-204.55 212.4,-264.35 107.75,-64.39 230.72,-80.6 352.57,-60.51 27.94,-41.28 55.89,-82.55 83.83,-123.83 12.57,-18.56 110.28,-160.05 111.08,-167.5 0.39,-3.76 -12.75,-40.66 -7.76,-72.68 7.45,-47.77 47.22,-94.02 96.66,-99.64 107.74,-12.25 283.58,115.89 341.77,201.92 57.66,88.43 36.39,170.61 -79,180.6 -34.81,3.01 -29.75,6.65 -50.79,38.01 -33.23,49.53 -65.28,99.76 -98.07,149.55l-1.83 2.79c-23.62,35.65 -47.43,70.98 -72.01,105.97zm-793.74 306.65c0.4,-0.05 0.8,-0.09 1.2,-0.12 23.8,-2.11 74.78,-84.49 144.27,-87.21 68.98,-2.72 118.09,77.56 148.31,81.35 42.45,3.97 98.85,-85.1 170.53,-82.48 62.92,2.3 104,79.14 139,81.28 38.6,2.36 84.3,-66.71 142.24,-79.84 -12.61,-66.77 -42.78,-132.39 -82.34,-194.99 -8.71,-13.79 -8.71,-30.3 0.02,-44.09 78.93,-123.23 163.98,-248.59 248.88,-367.81 20.28,-28.48 24.3,-29.7 54.79,-44.78 18.38,-9.08 -0.76,-18.28 -12.97,-28.03 -29.54,-23.18 -79.48,-58.65 -113.94,-71.64 4.01,10.62 71.93,52.94 64.97,103.51 -4.76,34.63 -43.96,46.9 -75.62,36.23 -22.89,-7.71 -45.07,-24.1 -64.65,-38.08 -36.84,49.91 -69.78,101.65 -104.28,153.11 -40.28,59.51 -80.57,119.02 -120.85,178.53 -9.86,14.57 -26.89,21.12 -43.98,16.94 -103.51,-25.37 -213.54,-22.38 -308.52,29.81 -78.1,42.92 -135.88,113.69 -165.75,197.32 -19.01,53.24 -25.88,107.99 -21.31,160.99z"/></g><text x="0" y="2554.98" fill="#000000" font-size="5px" font-weight="bold" font-family="'Helvetica Neue', Helvetica, Arial-Unicode, Arial, Sans-serif">Created by romli ahmad</text><text x="0" y="2559.98" fill="#000000" font-size="5px" font-weight="bold" font-family="'Helvetica Neue', Helvetica, Arial-Unicode, Arial, Sans-serif">from the Noun Project</text></svg>