<svg width="12" height="11" viewBox="0 0 12 11" fill="none" xmlns="http://www.w3.org/2000/svg">
<path d="M6.94821 0.0562175C5.93926 0.0562175 5.10094 0.754689 4.86816 1.69202L4.76711 2.09894L4.51074 1.76732C4.23245 1.40724 3.80591 1.16981 3.32051 1.16981C2.48527 1.16981 1.80199 1.85377 1.80199 2.69035C1.80199 2.82237 1.8329 2.95425 1.87392 3.09862L1.93766 3.32445L1.7057 3.35571C1.16422 3.42726 0.742676 3.88959 0.742676 4.45298C0.742676 5.06638 1.23853 5.56254 1.85085 5.56254C2.24644 5.56254 2.59496 5.34947 2.79084 5.0356L2.94207 4.79347L3.12046 5.01523C3.45511 5.42909 3.96566 5.69545 4.53856 5.69545C5.20294 5.69545 5.76584 5.34441 6.08616 4.81246L6.25848 4.52625L6.43275 4.81177C6.6276 5.13025 6.9701 5.3374 7.37203 5.3374C7.69649 5.3374 7.98658 5.20009 8.18861 4.97931L8.32903 4.82602L8.47888 4.96978C8.75179 5.2314 9.11112 5.39027 9.51723 5.39027C10.3525 5.39027 11.0351 4.70696 11.0351 3.87038C11.0351 3.03381 10.3544 2.36275 9.51723 2.36275C9.45269 2.36275 9.39236 2.36644 9.33005 2.37426L9.10489 2.40275L9.10217 2.17553C9.08894 0.996932 8.12982 0.0561523 6.94821 0.0561523V0.0562175ZM7.86991 5.65816C7.74375 5.70213 7.61013 5.73047 7.47178 5.73954L7.63659 6.31737L8.0245 6.20072L7.86987 5.65816H7.86991ZM3.24386 5.68258L3.46225 6.44759L3.85018 6.33161L3.74232 5.95316C3.56397 5.8843 3.39686 5.79248 3.24386 5.68253V5.68258ZM8.9516 5.7097L9.25815 6.78398L9.64608 6.668L9.3965 5.79176C9.24233 5.78199 9.09332 5.75415 8.9516 5.70966V5.7097ZM2.24284 5.91518C2.11789 5.94952 1.98653 5.96809 1.85085 5.96809C1.84607 5.96809 1.84138 5.96744 1.83661 5.96744L2.09291 6.86738L2.48087 6.75075L2.24279 5.91521L2.24284 5.91518ZM5.10691 6.02641C4.9773 6.06102 4.84294 6.08396 4.70472 6.09425L4.89939 6.77653L5.2873 6.65988L5.10686 6.02639L5.10691 6.02641ZM6.63962 6.17971L6.25104 6.29636L6.60507 7.53811L6.99367 7.42146L6.63964 6.17969L6.63962 6.17971ZM8.28768 7.12171L7.89903 7.23836L8.11743 8.00474L8.50603 7.88809L8.28768 7.12171ZM4.11333 7.25257L3.72472 7.36925L3.92004 8.05352L4.30795 7.93692L4.11328 7.2526L4.11333 7.25257ZM5.55046 7.58085L5.16184 7.6975L5.52941 8.98749L5.91801 8.87082L5.55046 7.58087V7.58085ZM9.90924 7.58898L9.52062 7.70566L9.78517 8.6314L10.1731 8.51474L9.90927 7.58901L9.90924 7.58898ZM2.74403 7.67176L2.35545 7.78841L2.66948 8.88981L3.05807 8.77313L2.74403 7.67174V7.67176ZM7.25612 8.34317L6.86819 8.45917L7.21272 9.66773L7.60065 9.55108L7.25612 8.34319V8.34317ZM8.76852 8.80912L8.37992 8.92577L8.56639 9.58092L8.95568 9.46427L8.7685 8.80912H8.76852ZM4.57114 8.8579L4.18251 8.97456L4.37849 9.66226L4.76711 9.54561L4.57114 8.8579ZM10.4362 9.43573L10.0475 9.55238L10.2754 10.352H10.6973L10.4362 9.43571L10.4362 9.43573ZM3.32049 9.6941L2.93256 9.81077L3.0865 10.352H3.50837L3.32051 9.69412L3.32049 9.6941ZM6.18044 9.79176L5.79253 9.90843L5.91869 10.352H6.34054L6.18048 9.79178L6.18044 9.79176Z" fill="white"/>
</svg>
