<svg width="16" height="37" viewBox="0 0 16 37" fill="none" xmlns="http://www.w3.org/2000/svg">
<path d="M13.9766 6.25781C13.6328 6.61719 13.2422 6.91406 12.8047 7.14844C12.3672 7.36719 11.9062 7.50781 11.4219 7.57031C10.9375 7.61719 10.4766 7.53906 10.0391 7.33594C9.61719 7.13281 9.25 6.84375 8.9375 6.46875C8.26562 5.6875 7.92969 4.89844 7.92969 4.10156C7.92969 3.30469 8.05469 2.71094 8.30469 2.32031C8.57031 1.91406 8.89844 1.58594 9.28906 1.33594C10.0391 0.851562 10.7422 0.609375 11.3984 0.609375C12.0703 0.609375 12.5859 0.65625 12.9453 0.75C13.3203 0.84375 13.6641 1 13.9766 1.21875C14.7422 1.73438 15.125 2.36719 15.125 3.11719C15.125 3.85156 15.0156 4.46875 14.7969 4.96875C14.5938 5.45312 14.3203 5.88281 13.9766 6.25781ZM9.17188 31.6172C9.57812 31.6172 9.78125 31.8828 9.78125 32.4141C9.78125 33.1172 9.46094 33.8438 8.82031 34.5938C7.88281 35.6875 6.625 36.2344 5.04688 36.2344C3.23438 36.2344 1.99219 35.5 1.32031 34.0312C1.07031 33.5156 0.945312 32.8906 0.945312 32.1562C0.945312 31.4219 1.07031 30.6094 1.32031 29.7188C1.58594 28.8125 1.90625 27.8672 2.28125 26.8828C2.67188 25.8828 3.09375 24.875 3.54688 23.8594L4.78906 20.9062C5.69531 18.7031 6.14844 17.25 6.14844 16.5469C6.14844 15.8438 6.07031 15.3828 5.91406 15.1641C5.77344 14.9297 5.61719 14.75 5.44531 14.625L4.97656 14.2969C4.82031 14.1875 4.74219 14 4.74219 13.7344C4.74219 13.4531 4.84375 13.1875 5.04688 12.9375C5.26562 12.6875 5.54688 12.4688 5.89062 12.2812C6.59375 11.9219 7.41406 11.7422 8.35156 11.7422C10.6484 11.7422 11.7969 12.3438 11.7969 13.5469C11.7969 14.9531 11.4297 16.5625 10.6953 18.375C9.96094 20.1719 9.33594 21.625 8.82031 22.7344L7.41406 25.9688C6.38281 28.3438 5.86719 30.0547 5.86719 31.1016C5.86719 31.7891 6.21094 32.1328 6.89844 32.1328C7.57031 32.1328 8.07812 32.0469 8.42188 31.875C8.76562 31.7031 9.01562 31.6172 9.17188 31.6172Z" fill="white"/>
</svg>
