<svg width="23" height="20" viewBox="0 0 23 20" fill="none" xmlns="http://www.w3.org/2000/svg">
<path d="M22.1904 16.5544L12.9015 0.663585C12.5154 0.277508 12.0482 0.0844727 11.5 0.0844727C10.9518 0.0844727 10.4846 0.277508 10.0985 0.663585L0.809581 16.5544C0.423504 16.9405 0.230469 17.4077 0.230469 17.9559C0.230469 18.5041 0.423504 18.9713 0.809581 19.3573H22.1904C22.5765 18.9713 22.7695 18.5041 22.7695 17.9559C22.7695 17.4077 22.5765 16.9405 22.1904 16.5544ZM10.6545 6.36205C10.6545 6.05319 10.7626 5.79066 10.9788 5.57446C11.195 5.35826 11.4575 5.25016 11.7664 5.25016C12.0753 5.25016 12.3378 5.35826 12.554 5.57446C12.7702 5.79066 12.8783 6.05319 12.8783 6.36205V11.5509C12.8783 11.8598 12.7702 12.1223 12.554 12.3385C12.3378 12.5547 12.0753 12.6628 11.7664 12.6628C11.4575 12.6628 11.195 12.5547 10.9788 12.3385C10.7626 12.1223 10.6545 11.8598 10.6545 11.5509V6.36205ZM11.7664 16.3923C11.4575 16.3923 11.195 16.2803 10.9788 16.0564C10.7626 15.8325 10.6545 15.5738 10.6545 15.2804C10.6545 14.9715 10.7626 14.709 10.9788 14.4928C11.195 14.2766 11.4575 14.1685 11.7664 14.1685C12.0753 14.1685 12.3378 14.2766 12.554 14.4928C12.7702 14.709 12.8783 14.9715 12.8783 15.2804C12.8783 15.5738 12.7702 15.8325 12.554 16.0564C12.3378 16.2803 12.0753 16.3923 11.7664 16.3923Z" fill="white"/>
</svg>
