<svg width="14" height="15" viewBox="0 0 14 15" fill="none" xmlns="http://www.w3.org/2000/svg">
<path fill-rule="evenodd" clip-rule="evenodd" d="M7 14.9263C10.866 14.9263 14 11.7923 14 7.92627C14 4.06028 10.866 0.92627 7 0.92627C3.13401 0.92627 0 4.06028 0 7.92627C0 11.7923 3.13401 14.9263 7 14.9263ZM9.99072 9.92627H3.99072V10.9263H9.99072V9.92627ZM3.99072 3.91882H4.99072V4.90515H5.98218V5.90515H4.98218V4.91882H3.99072V3.91882ZM9.99666 3.91882H8.99666V4.90515H8.00438V5.90515H9.00438V4.91882H9.99666V3.91882ZM9.0033 5.92491H11.0047V7.9263H9.0033V5.92491ZM4.99942 5.92485H2.99803V7.92625H4.99942V5.92485Z" fill="black"/>
</svg>
